<svg xmlns="http://www.w3.org/2000/svg" xmlns:xlink="http://www.w3.org/1999/xlink" viewBox="0 0 250 150"><defs><style>.cls-1{fill:#eee;}.cls-2{fill:url(#名称未設定グラデーション_3702);}.cls-3{fill:url(#名称未設定グラデーション_3649);}.cls-4{fill:url(#名称未設定グラデーション_3724);}</style><linearGradient id="名称未設定グラデーション_3702" x1="75.67" y1="40.4" x2="178.11" y2="132.59" gradientUnits="userSpaceOnUse"><stop offset="0" stop-color="#b3b3b3" stop-opacity="0.5"/><stop offset="1" stop-color="#333" stop-opacity="0.8"/></linearGradient><linearGradient id="名称未設定グラデーション_3649" x1="125.96" y1="68.11" x2="127.43" y2="68.11" gradientUnits="userSpaceOnUse"><stop offset="0" stop-color="#e6e6e6"/><stop offset="1" stop-color="#666"/></linearGradient><linearGradient id="名称未設定グラデーション_3724" x1="73.65" y1="37.88" x2="176.09" y2="130.07" gradientUnits="userSpaceOnUse"><stop offset="0" stop-color="#e6e6e6"/><stop offset="0.12" stop-color="#d7d7d7"/><stop offset="0.51" stop-color="#aeaeae"/><stop offset="0.82" stop-color="#959595"/><stop offset="1" stop-color="#8c8c8c"/></linearGradient></defs><g id="レイヤー_15" data-name="レイヤー 15"><rect class="cls-1" width="250" height="150"/></g><g id="曇り"><path class="cls-2" d="M169.41,58.09c-4-11.87-13.92-20.24-25.43-20.24a24.71,24.71,0,0,0-16.27,6.31c-4.31-7.82-12.14-13-21.1-13C93,31.11,82,43.17,82,58.07v.16C69.72,59.72,60.16,71.76,60.16,86.37c0,15.63,10.94,28.3,24.42,28.3a21.3,21.3,0,0,0,7-1.19,33.11,33.11,0,0,0,21.78,7.93,33.83,33.83,0,0,0,17.1-4.56,22.39,22.39,0,0,0,13.47,4.56c9.89,0,18.44-6.65,22.39-16.26.61.06,1.22.08,1.83.08a23.58,23.58,0,0,0,1.26-47.14Zm-40,12c-.5.42-1,.85-1.46,1.31.29-.54.55-1.08.8-1.65Z"/><path class="cls-3" d="M127.43,67.62c-.5.42-1,.85-1.47,1.31.3-.54.56-1.08.81-1.65Z"/><path class="cls-3" d="M127.43,67.62c-.5.42-1,.85-1.47,1.31.3-.54.56-1.08.81-1.65Z"/><path class="cls-4" d="M167.39,55.57c-4-11.87-13.92-20.24-25.43-20.24a24.67,24.67,0,0,0-16.27,6.31c-4.31-7.82-12.14-13-21.1-13C91,28.59,80,40.65,80,55.55v.16C67.7,57.2,58.14,69.24,58.14,83.85c0,15.63,10.94,28.3,24.42,28.3a21.3,21.3,0,0,0,7-1.19,33.05,33.05,0,0,0,21.78,7.93,33.85,33.85,0,0,0,17.1-4.56,22.39,22.39,0,0,0,13.46,4.56c9.9,0,18.45-6.65,22.4-16.26.6.06,1.22.09,1.83.09a23.59,23.59,0,0,0,1.26-47.15Zm-40,12.05c-.5.42-1,.85-1.47,1.31.3-.54.56-1.08.81-1.65Z"/></g></svg>