<svg xmlns="http://www.w3.org/2000/svg" xmlns:xlink="http://www.w3.org/1999/xlink" viewBox="0 0 250 150"><defs><style>.cls-1{fill:#eee;}.cls-2{fill:url(#名称未設定グラデーション_2455);}.cls-3{fill:none;stroke-miterlimit:10;stroke-width:5px;stroke:url(#名称未設定グラデーション_1525);}.cls-4{fill:url(#名称未設定グラデーション_2467);}.cls-5{fill:url(#名称未設定グラデーション_1525-2);}.cls-6{fill:url(#名称未設定グラデーション_3702);}.cls-7{fill:url(#名称未設定グラデーション_3649);}.cls-8{fill:url(#名称未設定グラデーション_3724);}.cls-9{fill:url(#名称未設定グラデーション_3599);}.cls-10{fill:url(#名称未設定グラデーション_3636);}</style><linearGradient id="名称未設定グラデーション_2455" x1="113.49" y1="84.5" x2="203" y2="84.5" gradientTransform="translate(0 0)" gradientUnits="userSpaceOnUse"><stop offset="0.01" stop-color="#688da6" stop-opacity="0.7"/><stop offset="1" stop-color="#56729f"/></linearGradient><linearGradient id="名称未設定グラデーション_1525" x1="132.01" y1="64.26" x2="176.53" y2="108.78" gradientTransform="translate(0 0)" gradientUnits="userSpaceOnUse"><stop offset="0" stop-color="#7fd1fb"/><stop offset="1" stop-color="#1e74ff"/></linearGradient><linearGradient id="名称未設定グラデーション_2467" x1="130.85" y1="54.32" x2="184.88" y2="108.35" gradientTransform="translate(0 0)" gradientUnits="userSpaceOnUse"><stop offset="0" stop-color="#8dd8fb"/><stop offset="1" stop-color="#1e74ff"/></linearGradient><linearGradient id="名称未設定グラデーション_1525-2" x1="157.75" y1="36" x2="157.75" y2="36" xlink:href="#名称未設定グラデーション_1525"/><linearGradient id="名称未設定グラデーション_3702" x1="55.98" y1="34.15" x2="105.86" y2="79.05" gradientUnits="userSpaceOnUse"><stop offset="0" stop-color="#b3b3b3" stop-opacity="0.5"/><stop offset="1" stop-color="#333" stop-opacity="0.8"/></linearGradient><linearGradient id="名称未設定グラデーション_3649" x1="80.47" y1="47.64" x2="81.18" y2="47.64" gradientUnits="userSpaceOnUse"><stop offset="0" stop-color="#e6e6e6"/><stop offset="1" stop-color="#666"/></linearGradient><linearGradient id="名称未設定グラデーション_3724" x1="54.99" y1="32.92" x2="104.88" y2="77.82" gradientUnits="userSpaceOnUse"><stop offset="0" stop-color="#e6e6e6"/><stop offset="0.12" stop-color="#d7d7d7"/><stop offset="0.51" stop-color="#aeaeae"/><stop offset="0.82" stop-color="#959595"/><stop offset="1" stop-color="#8c8c8c"/></linearGradient><linearGradient id="名称未設定グラデーション_3599" x1="78.63" y1="108.2" x2="122.12" y2="108.2" gradientUnits="userSpaceOnUse"><stop offset="0" stop-color="#b3b3b3" stop-opacity="0.4"/><stop offset="1" stop-color="#4d4d4d"/></linearGradient><linearGradient id="名称未設定グラデーション_3636" x1="77.88" y1="107.8" x2="121.37" y2="107.8" gradientUnits="userSpaceOnUse"><stop offset="0" stop-color="#ccc"/><stop offset="1" stop-color="#666"/></linearGradient></defs><g id="レイヤー_15" data-name="レイヤー 15"><rect class="cls-1" width="250" height="150"/></g><g id="曇_" data-name="曇→"><g id="レイヤー_30" data-name="レイヤー 30"><path class="cls-2" d="M136.15,76.81Zm24.58,44.11V42h-5v78.91c0,3.31-2,6.11-4.47,6.11s-4.48-2.8-4.48-6.11h-5c0,6.11,4.24,11.08,9.45,11.08S160.73,127,160.73,120.92ZM128.41,80.79c7.29,0,13.36,2.9,14.66,9.27a.27.27,0,0,0,.53,0c1.31-6.17,7.37-8.28,14.65-8.28s13.35,2.12,14.66,8.3a.27.27,0,0,0,.52,0c1.3-6.18,7.37-8.3,14.65-8.3,5,0,14.92,1.71,14.92,10C203,67,183,48,158.25,48S113.5,66,113.5,90.73C113.5,82.5,123.44,80.79,128.41,80.79ZM158.25,37Zm-21.88,0"/><path class="cls-3" d="M157.75,41v78.91c0,4.74-3.12,8.59-7,8.59h0c-3.84,0-7-3.85-7-8.59"/><path class="cls-4" d="M113,89.74C113,65,133,47,157.75,47S202.5,66,202.5,90.73c0-8.23-9.94-9.94-14.91-9.94-7.29,0-13.35,2.11-14.66,8.3a.27.27,0,0,1-.52,0c-1.31-6.19-7.38-8.3-14.66-8.3s-13.34,2.11-14.65,8.28a.27.27,0,0,1-.52,0c-1.3-6.38-7.37-9.27-14.66-9.27C122.94,79.8,113,81.51,113,89.74Z"/><path class="cls-5" d="M157.75,36"/><path class="cls-6" d="M101.63,42.77c-2-5.79-6.78-9.86-12.39-9.86A12,12,0,0,0,81.32,36,11.81,11.81,0,0,0,71,29.63c-6.62,0-12,5.87-12,13.12v.08c-6,.73-10.62,6.59-10.62,13.71,0,7.61,5.32,13.78,11.89,13.78a10.42,10.42,0,0,0,3.4-.58A16.14,16.14,0,0,0,74.33,73.6a16.46,16.46,0,0,0,8.33-2.22,10.88,10.88,0,0,0,6.56,2.22c4.82,0,9-3.24,10.9-7.92.3,0,.6,0,.89,0a11.48,11.48,0,0,0,.62-22.95ZM82.17,48.63c-.25.21-.48.42-.72.64.15-.26.27-.52.4-.8Z"/><path class="cls-7" d="M81.18,47.41c-.24.2-.48.41-.71.63.14-.26.27-.52.39-.8Z"/><path class="cls-7" d="M81.18,47.41c-.24.2-.48.41-.71.63.14-.26.27-.52.39-.8Z"/><path class="cls-8" d="M100.64,41.54c-2-5.78-6.77-9.86-12.38-9.86a12,12,0,0,0-7.92,3.07A11.84,11.84,0,0,0,70.06,28.4c-6.62,0-12,5.87-12,13.13v.08c-6,.72-10.63,6.58-10.63,13.7,0,7.61,5.33,13.78,11.89,13.78a10.22,10.22,0,0,0,3.41-.58,16.07,16.07,0,0,0,10.61,3.86,16.49,16.49,0,0,0,8.33-2.22,10.87,10.87,0,0,0,6.55,2.22c4.82,0,9-3.23,10.91-7.91.29,0,.59,0,.89,0a11.49,11.49,0,0,0,.61-23ZM81.18,47.41c-.24.2-.48.41-.71.63.14-.26.27-.52.39-.8Z"/><path class="cls-9" d="M122.12,110.7,109.12,99v8.5H88.32a2.68,2.68,0,0,1-2.69-2.69V94h-7v10.81a9.69,9.69,0,0,0,9.69,9.69h20.8v7.82Z"/><path class="cls-10" d="M121.37,110.3l-13-11.66v8.5H87.57a2.69,2.69,0,0,1-2.69-2.7V93.64h-7v10.8a9.7,9.7,0,0,0,9.69,9.7h20.8V122Z"/></g></g></svg>