<svg xmlns="http://www.w3.org/2000/svg" xmlns:xlink="http://www.w3.org/1999/xlink" viewBox="0 0 250 150"><defs><style>.cls-1{fill:#eee;}.cls-2{fill:url(#名称未設定グラデーション_1193);}.cls-3{fill:url(#名称未設定グラデーション_60);}.cls-4{fill:url(#名称未設定グラデーション_10);}.cls-5{fill:url(#名称未設定グラデーション_3702);}.cls-6{fill:url(#名称未設定グラデーション_3649);}.cls-7{fill:url(#名称未設定グラデーション_3724);}.cls-8{fill:url(#名称未設定グラデーション_3599);}.cls-9{fill:url(#名称未設定グラデーション_3636);}</style><linearGradient id="名称未設定グラデーション_1193" x1="114.95" y1="85.39" x2="205.5" y2="85.39" gradientUnits="userSpaceOnUse"><stop offset="0" stop-color="#998675" stop-opacity="0.4"/><stop offset="1" stop-color="#736357"/></linearGradient><linearGradient id="名称未設定グラデーション_60" x1="130.69" y1="56.6" x2="195.8" y2="119.31" gradientUnits="userSpaceOnUse"><stop offset="0" stop-color="#ffb379"/><stop offset="1" stop-color="#f22506"/></linearGradient><linearGradient id="名称未設定グラデーション_10" x1="143.46" y1="68.3" x2="176.09" y2="100.92" gradientUnits="userSpaceOnUse"><stop offset="0" stop-color="#ff9c68"/><stop offset="1" stop-color="#f13700"/></linearGradient><linearGradient id="名称未設定グラデーション_3702" x1="55.98" y1="35.35" x2="105.86" y2="80.25" gradientUnits="userSpaceOnUse"><stop offset="0" stop-color="#b3b3b3" stop-opacity="0.5"/><stop offset="1" stop-color="#333" stop-opacity="0.8"/></linearGradient><linearGradient id="名称未設定グラデーション_3649" x1="80.47" y1="48.85" x2="81.18" y2="48.85" gradientUnits="userSpaceOnUse"><stop offset="0" stop-color="#e6e6e6"/><stop offset="1" stop-color="#666"/></linearGradient><linearGradient id="名称未設定グラデーション_3724" x1="54.99" y1="34.12" x2="104.88" y2="79.02" gradientUnits="userSpaceOnUse"><stop offset="0" stop-color="#e6e6e6"/><stop offset="0.12" stop-color="#d7d7d7"/><stop offset="0.51" stop-color="#aeaeae"/><stop offset="0.82" stop-color="#959595"/><stop offset="1" stop-color="#8c8c8c"/></linearGradient><linearGradient id="名称未設定グラデーション_3599" x1="78.63" y1="108.2" x2="122.12" y2="108.2" gradientUnits="userSpaceOnUse"><stop offset="0" stop-color="#b3b3b3" stop-opacity="0.4"/><stop offset="1" stop-color="#4d4d4d"/></linearGradient><linearGradient id="名称未設定グラデーション_3636" x1="77.88" y1="107.8" x2="121.37" y2="107.8" gradientUnits="userSpaceOnUse"><stop offset="0" stop-color="#ccc"/><stop offset="1" stop-color="#666"/></linearGradient></defs><g id="レイヤー_15" data-name="レイヤー 15"><rect class="cls-1" width="250" height="150"/></g><g id="曇_" data-name="曇→"><g id="レイヤー_29" data-name="レイヤー 29"><path class="cls-2" d="M183.33,85.39a23.11,23.11,0,1,1-23.1-23A23.06,23.06,0,0,1,183.33,85.39ZM159.61,40.28l-8.16,18.79h16.32ZM146.89,61.46,135.35,73l-7.57-19ZM133.82,77.87V94.13L115,86Zm2.4,20.81,11.53,11.5-19.1,7.54Zm16.46,13H169l-8.16,18.8Zm20.88-2.39,11.54-11.5,7.57,19Zm13.08-16.4V76.65l18.86,8.13Zm-2.4-20.81L172.7,60.6l19.11-7.54Z"/><path class="cls-3" d="M167.32,58.3H151l8.16-18.8Zm-40-5.15,7.57,19,11.54-11.5ZM114.5,85.22l18.86,8.13V77.09Zm13.69,31.72,19.11-7.54L135.76,97.9Zm32.2,12.78,8.16-18.79H152.23Zm31.83-13.64-7.57-19-11.54,11.5ZM205.05,84l-18.87-8.13V92.13Zm-13.7-31.72-19.1,7.54,11.53,11.5Z"/><ellipse class="cls-4" cx="159.77" cy="84.61" rx="23.11" ry="23.03"/><path class="cls-5" d="M101.63,44c-2-5.78-6.78-9.86-12.39-9.86a12,12,0,0,0-7.92,3.07A11.83,11.83,0,0,0,71,30.83c-6.62,0-12,5.87-12,13.13V44c-6,.73-10.62,6.59-10.62,13.71,0,7.61,5.32,13.78,11.89,13.78a10.16,10.16,0,0,0,3.4-.58A16.09,16.09,0,0,0,74.33,74.8a16.46,16.46,0,0,0,8.33-2.22,10.88,10.88,0,0,0,6.56,2.22c4.82,0,9-3.23,10.9-7.91.3,0,.6,0,.89,0a11.49,11.49,0,0,0,.62-23ZM82.17,49.84c-.25.2-.48.41-.72.63.15-.26.27-.52.4-.8Z"/><path class="cls-6" d="M81.18,48.61c-.24.2-.48.41-.71.64.14-.27.27-.53.39-.81Z"/><path class="cls-6" d="M81.18,48.61c-.24.2-.48.41-.71.64.14-.27.27-.53.39-.81Z"/><path class="cls-7" d="M100.64,42.74c-2-5.78-6.77-9.86-12.38-9.86A12,12,0,0,0,80.34,36,11.83,11.83,0,0,0,70.06,29.6c-6.62,0-12,5.88-12,13.13v.08c-6,.73-10.63,6.59-10.63,13.7,0,7.61,5.33,13.78,11.89,13.78a10.47,10.47,0,0,0,3.41-.57,16.12,16.12,0,0,0,10.61,3.86,16.59,16.59,0,0,0,8.33-2.22,10.94,10.94,0,0,0,6.55,2.22c4.82,0,9-3.24,10.91-7.92a8.7,8.7,0,0,0,.89,0,11.49,11.49,0,0,0,.61-23ZM81.18,48.61c-.24.2-.48.41-.71.64.14-.27.27-.53.39-.81Z"/><path class="cls-8" d="M122.12,110.7,109.12,99v8.5H88.32a2.68,2.68,0,0,1-2.69-2.69V94h-7v10.81a9.69,9.69,0,0,0,9.69,9.69h20.8v7.82Z"/><path class="cls-9" d="M121.37,110.3l-13-11.66v8.5H87.57a2.69,2.69,0,0,1-2.69-2.7V93.64h-7v10.8a9.7,9.7,0,0,0,9.69,9.7h20.8V122Z"/></g></g></svg>