<svg xmlns="http://www.w3.org/2000/svg" xmlns:xlink="http://www.w3.org/1999/xlink" viewBox="0 0 250 150"><defs><style>.cls-1{fill:#eee;}.cls-2{fill:url(#名称未設定グラデーション_3702);}.cls-3{fill:url(#名称未設定グラデーション_3649);}.cls-4{fill:url(#名称未設定グラデーション_3724);}.cls-5{fill:url(#名称未設定グラデーション_4383);}.cls-12,.cls-6{fill:none;stroke:#5e4640;stroke-miterlimit:10;}.cls-6{stroke-width:2px;}.cls-7{fill:url(#名称未設定グラデーション_4147);}.cls-8{fill:url(#名称未設定グラデーション_4246);}.cls-9{fill:url(#名称未設定グラデーション_4235);}.cls-10{fill:#383838;}.cls-11{fill:url(#名称未設定グラデーション_3869);}.cls-13{fill:url(#名称未設定グラデーション_3599);}.cls-14{fill:url(#名称未設定グラデーション_3636);}</style><linearGradient id="名称未設定グラデーション_3702" x1="55.98" y1="34.15" x2="105.86" y2="79.05" gradientUnits="userSpaceOnUse"><stop offset="0" stop-color="#b3b3b3" stop-opacity="0.5"/><stop offset="1" stop-color="#333" stop-opacity="0.8"/></linearGradient><linearGradient id="名称未設定グラデーション_3649" x1="80.47" y1="47.64" x2="81.18" y2="47.64" gradientUnits="userSpaceOnUse"><stop offset="0" stop-color="#e6e6e6"/><stop offset="1" stop-color="#666"/></linearGradient><linearGradient id="名称未設定グラデーション_3724" x1="54.99" y1="32.92" x2="104.88" y2="77.82" gradientUnits="userSpaceOnUse"><stop offset="0" stop-color="#e6e6e6"/><stop offset="0.12" stop-color="#d7d7d7"/><stop offset="0.51" stop-color="#aeaeae"/><stop offset="0.82" stop-color="#959595"/><stop offset="1" stop-color="#8c8c8c"/></linearGradient><linearGradient id="名称未設定グラデーション_4383" x1="130.71" y1="84.67" x2="193.5" y2="84.67" gradientUnits="userSpaceOnUse"><stop offset="0" stop-color="#b2bfcb"/><stop offset="0.76" stop-color="#7d8b93"/><stop offset="1" stop-color="#6b7a80"/></linearGradient><linearGradient id="名称未設定グラデーション_4147" x1="171.7" y1="39.35" x2="186.26" y2="56.96" gradientUnits="userSpaceOnUse"><stop offset="0" stop-color="#ff817a"/><stop offset="0.53" stop-color="#c7524c"/><stop offset="1" stop-color="#922722"/></linearGradient><linearGradient id="名称未設定グラデーション_4246" x1="144.26" y1="87.62" x2="182.27" y2="126.19" gradientUnits="userSpaceOnUse"><stop offset="0" stop-color="#dae6e6"/><stop offset="1" stop-color="#a9b3c0"/></linearGradient><linearGradient id="名称未設定グラデーション_4235" x1="147.65" y1="50.82" x2="178.61" y2="82.23" gradientUnits="userSpaceOnUse"><stop offset="0" stop-color="#e2eeee"/><stop offset="0.98" stop-color="#b2b5b9"/><stop offset="1" stop-color="#b1b4b8"/></linearGradient><linearGradient id="名称未設定グラデーション_3869" x1="134.91" y1="73.12" x2="151.25" y2="73.12" gradientTransform="translate(-5.55 11.79) rotate(-6.53)" gradientUnits="userSpaceOnUse"><stop offset="0" stop-color="#ffa67c"/><stop offset="0.65" stop-color="#f67544"/><stop offset="1" stop-color="#f15a24"/></linearGradient><linearGradient id="名称未設定グラデーション_3599" x1="78.63" y1="108.2" x2="122.12" y2="108.2" gradientUnits="userSpaceOnUse"><stop offset="0" stop-color="#b3b3b3" stop-opacity="0.4"/><stop offset="1" stop-color="#4d4d4d"/></linearGradient><linearGradient id="名称未設定グラデーション_3636" x1="77.88" y1="107.8" x2="121.37" y2="107.8" gradientUnits="userSpaceOnUse"><stop offset="0" stop-color="#ccc"/><stop offset="1" stop-color="#666"/></linearGradient></defs><g id="レイヤー_15" data-name="レイヤー 15"><rect class="cls-1" width="250" height="150"/></g><g id="曇_" data-name="曇→"><g id="レイヤー_31" data-name="レイヤー 31"><path class="cls-2" d="M101.63,42.77c-2-5.79-6.78-9.86-12.39-9.86A12,12,0,0,0,81.32,36,11.81,11.81,0,0,0,71,29.63c-6.62,0-12,5.87-12,13.12v.08c-6,.73-10.62,6.59-10.62,13.71,0,7.61,5.32,13.78,11.89,13.78a10.42,10.42,0,0,0,3.4-.58A16.14,16.14,0,0,0,74.33,73.6a16.46,16.46,0,0,0,8.33-2.22,10.88,10.88,0,0,0,6.56,2.22c4.82,0,9-3.24,10.9-7.92.3,0,.6,0,.89,0a11.48,11.48,0,0,0,.62-22.95ZM82.17,48.63c-.25.21-.48.42-.72.64.15-.26.27-.52.4-.8Z"/><path class="cls-3" d="M81.18,47.41c-.24.2-.48.41-.71.63.14-.26.27-.52.39-.8Z"/><path class="cls-3" d="M81.18,47.41c-.24.2-.48.41-.71.63.14-.26.27-.52.39-.8Z"/><path class="cls-4" d="M100.64,41.54c-2-5.78-6.77-9.86-12.38-9.86a12,12,0,0,0-7.92,3.07A11.84,11.84,0,0,0,70.06,28.4c-6.62,0-12,5.87-12,13.13v.08c-6,.72-10.63,6.58-10.63,13.7,0,7.61,5.33,13.78,11.89,13.78a10.22,10.22,0,0,0,3.41-.58,16.07,16.07,0,0,0,10.61,3.86,16.49,16.49,0,0,0,8.33-2.22,10.87,10.87,0,0,0,6.55,2.22c4.82,0,9-3.23,10.91-7.91.29,0,.59,0,.89,0a11.49,11.49,0,0,0,.61-23ZM81.18,47.41c-.24.2-.48.41-.71.63.14-.26.27-.52.39-.8Z"/><path class="cls-5" d="M146.47,95.14l-15.76-18,1.16-1,15.76,18Zm42.78-49-10.49-9.25L166.4,48.16l13.23,11.66Zm-28,32.16a27.08,27.08,0,1,0,27.08,27.08A27.07,27.07,0,0,0,161.22,78.3Zm.39-34.82a22.05,22.05,0,1,0,22,22.05A22,22,0,0,0,161.61,43.48ZM148.45,59a2.71,2.71,0,1,0,2.71,2.71A2.71,2.71,0,0,0,148.45,59Zm14.7,3.1a2.71,2.71,0,1,0,2.71,2.71A2.7,2.7,0,0,0,163.15,62.05ZM138,68.84l11.62,3.44a3.23,3.23,0,0,0,4.14-2.82l0-.44a3.24,3.24,0,0,0-3.59-3.49l-12,1.38A1,1,0,0,0,138,68.84Zm17.66,8.4a3.11,3.11,0,0,0,2.66-3.51l-.77.09a2.3,2.3,0,1,1-4.56.58l-.77.09a3.14,3.14,0,0,0,3.07,2.78A2.31,2.31,0,0,0,155.67,77.24Zm37.83,2.37-1.12-1.07-17,17.79,1.12,1.07Z"/><line class="cls-6" x1="130.5" y1="75.32" x2="146.26" y2="93.28"/><polygon class="cls-7" points="178.85 58.47 165.61 46.81 177.97 35.55 188.46 44.79 178.85 58.47"/><circle class="cls-8" cx="160.43" cy="104.03" r="27.08"/><circle class="cls-9" cx="160.82" cy="64.18" r="22.05"/><circle class="cls-10" cx="147.67" cy="60.31" r="2.71"/><circle class="cls-10" cx="162.37" cy="63.41" r="2.71"/><path class="cls-11" d="M137.23,67.49l11.62,3.44A3.23,3.23,0,0,0,153,68.11l0-.44a3.23,3.23,0,0,0-3.59-3.49l-12,1.38A1,1,0,0,0,137.23,67.49Z"/><path class="cls-12" d="M157.16,72.43a2.69,2.69,0,1,1-5.33.67"/><line class="cls-6" x1="192.15" y1="77.72" x2="175.13" y2="95.52"/><path class="cls-13" d="M122.12,110.7,109.12,99v8.5H88.32a2.68,2.68,0,0,1-2.69-2.69V94h-7v10.81a9.69,9.69,0,0,0,9.69,9.69h20.8v7.82Z"/><path class="cls-14" d="M121.37,110.3l-13-11.66v8.5H87.57a2.69,2.69,0,0,1-2.69-2.7V93.64h-7v10.8a9.7,9.7,0,0,0,9.69,9.7h20.8V122Z"/></g></g></svg>