<svg xmlns="http://www.w3.org/2000/svg" xmlns:xlink="http://www.w3.org/1999/xlink" viewBox="0 0 250 150"><defs><style>.cls-1{fill:#eee;}.cls-2{fill:url(#名称未設定グラデーション_2455);}.cls-3{fill:none;stroke-miterlimit:10;stroke-width:5px;stroke:url(#名称未設定グラデーション_1525);}.cls-4{fill:url(#名称未設定グラデーション_2467);}.cls-5{fill:url(#名称未設定グラデーション_1525-2);}.cls-6{fill:url(#名称未設定グラデーション_3702);}.cls-7{fill:url(#名称未設定グラデーション_3649);}.cls-8{fill:url(#名称未設定グラデーション_3724);}.cls-9{fill:url(#名称未設定グラデーション_3599);}.cls-10{fill:url(#名称未設定グラデーション_3636);}</style><linearGradient id="名称未設定グラデーション_2455" x1="49.03" y1="51.35" x2="111.31" y2="51.35" gradientTransform="translate(0 0)" gradientUnits="userSpaceOnUse"><stop offset="0.01" stop-color="#688da6" stop-opacity="0.7"/><stop offset="1" stop-color="#56729f"/></linearGradient><linearGradient id="名称未設定グラデーション_1525" x1="61.45" y1="36.96" x2="93.35" y2="68.86" gradientTransform="translate(0 0)" gradientUnits="userSpaceOnUse"><stop offset="0" stop-color="#7fd1fb"/><stop offset="1" stop-color="#1e74ff"/></linearGradient><linearGradient id="名称未設定グラデーション_2467" x1="61.11" y1="30.35" x2="98.71" y2="67.95" gradientTransform="translate(0 0)" gradientUnits="userSpaceOnUse"><stop offset="0" stop-color="#8dd8fb"/><stop offset="1" stop-color="#1e74ff"/></linearGradient><linearGradient id="名称未設定グラデーション_1525-2" x1="79.82" y1="17.6" x2="79.82" y2="17.6" xlink:href="#名称未設定グラデーション_1525"/><linearGradient id="名称未設定グラデーション_3702" x1="127.8" y1="47.9" x2="205.05" y2="117.43" gradientUnits="userSpaceOnUse"><stop offset="0" stop-color="#b3b3b3" stop-opacity="0.5"/><stop offset="1" stop-color="#333" stop-opacity="0.8"/></linearGradient><linearGradient id="名称未設定グラデーション_3649" x1="165.73" y1="68.8" x2="166.83" y2="68.8" gradientUnits="userSpaceOnUse"><stop offset="0" stop-color="#e6e6e6"/><stop offset="1" stop-color="#666"/></linearGradient><linearGradient id="名称未設定グラデーション_3724" x1="126.27" y1="46" x2="203.53" y2="115.53" gradientUnits="userSpaceOnUse"><stop offset="0" stop-color="#e6e6e6"/><stop offset="0.12" stop-color="#d7d7d7"/><stop offset="0.51" stop-color="#aeaeae"/><stop offset="0.82" stop-color="#959595"/><stop offset="1" stop-color="#8c8c8c"/></linearGradient><linearGradient id="名称未設定グラデーション_3599" x1="78.63" y1="108.2" x2="122.12" y2="108.2" gradientUnits="userSpaceOnUse"><stop offset="0" stop-color="#b3b3b3" stop-opacity="0.4"/><stop offset="1" stop-color="#4d4d4d"/></linearGradient><linearGradient id="名称未設定グラデーション_3636" x1="77.88" y1="107.8" x2="121.37" y2="107.8" gradientUnits="userSpaceOnUse"><stop offset="0" stop-color="#ccc"/><stop offset="1" stop-color="#666"/></linearGradient></defs><g id="レイヤー_15" data-name="レイヤー 15"><rect class="cls-1" width="250" height="150"/></g><g id="雨_" data-name="雨→"><g id="レイヤー_26" data-name="レイヤー 26"><path class="cls-2" d="M64.8,46ZM81.9,76.69V21.78H78.44V76.69c0,2.3-1.42,4.25-3.11,4.25s-3.11-2-3.11-4.25H68.76c0,4.25,2.94,7.71,6.57,7.71S81.9,80.94,81.9,76.69ZM59.41,48.77c5.07,0,9.3,2,10.2,6.45a.19.19,0,0,0,.37,0c.91-4.29,5.13-5.76,10.19-5.76s9.29,1.47,10.2,5.77a.18.18,0,0,0,.36,0c.91-4.3,5.14-5.77,10.2-5.77,3.46,0,10.38,1.19,10.38,6.92,0-17.2-13.94-30.45-31.14-30.45S49,38.49,49,55.69C49,50,56,48.77,59.41,48.77ZM80.17,18.29ZM65,18.32"/><path class="cls-3" d="M79.83,21.09V76c0,3.3-2.17,6-4.85,6h0c-2.67,0-4.84-2.68-4.84-6"/><path class="cls-4" d="M48.69,55c0-17.19,13.94-29.75,31.14-29.75S111,38.49,111,55.69c0-5.73-6.92-6.92-10.38-6.92-5.07,0-9.29,1.47-10.2,5.77a.18.18,0,0,1-.36,0c-.91-4.3-5.14-5.77-10.2-5.77s-9.28,1.46-10.2,5.76a.18.18,0,0,1-.36,0c-.91-4.44-5.13-6.46-10.2-6.46C55.61,48.07,48.69,49.26,48.69,55Z"/><path class="cls-5" d="M79.83,17.6"/><path class="cls-6" d="M198.5,61.25C195.44,52.29,188,46,179.32,46a18.58,18.58,0,0,0-12.27,4.76,18.32,18.32,0,0,0-15.92-9.84c-10.26,0-18.57,9.1-18.57,20.33v.12c-9.25,1.13-16.46,10.21-16.46,21.22,0,11.79,8.25,21.35,18.42,21.35a16,16,0,0,0,5.27-.9,25,25,0,0,0,16.43,6,25.5,25.5,0,0,0,12.9-3.44A16.88,16.88,0,0,0,179.27,109c7.47,0,13.92-5,16.9-12.26.45,0,.91.06,1.37.06a17.79,17.79,0,0,0,1-35.55Zm-30.14,9.09c-.38.31-.75.64-1.11,1,.22-.41.42-.81.61-1.24C168,70.16,168.19,70.24,168.36,70.34Z"/><path class="cls-7" d="M166.83,68.44c-.37.31-.74.64-1.1,1,.22-.41.42-.81.61-1.24A4.59,4.59,0,0,1,166.83,68.44Z"/><path class="cls-7" d="M166.83,68.44c-.37.31-.74.64-1.1,1,.22-.41.42-.81.61-1.24A4.59,4.59,0,0,1,166.83,68.44Z"/><path class="cls-8" d="M197,59.35c-3.06-9-10.5-15.27-19.18-15.27a18.6,18.6,0,0,0-12.27,4.76A18.29,18.29,0,0,0,149.61,39C139.35,39,131,48.1,131,59.33v.12c-9.24,1.13-16.45,10.21-16.45,21.22,0,11.79,8.24,21.35,18.41,21.35a16,16,0,0,0,5.28-.9,25,25,0,0,0,16.43,6,25.43,25.43,0,0,0,12.89-3.44,16.91,16.91,0,0,0,10.16,3.44c7.47,0,13.91-5,16.89-12.26q.69.06,1.38.06A17.79,17.79,0,0,0,197,59.35Zm-30.14,9.09c-.37.31-.74.64-1.1,1,.22-.41.42-.81.61-1.24A4.59,4.59,0,0,1,166.83,68.44Z"/><path class="cls-9" d="M122.12,110.7,109.12,99v8.5H88.32a2.68,2.68,0,0,1-2.69-2.69V94h-7v10.81a9.69,9.69,0,0,0,9.69,9.69h20.8v7.82Z"/><path class="cls-10" d="M121.37,110.3l-13-11.66v8.5H87.57a2.69,2.69,0,0,1-2.69-2.7V93.64h-7v10.8a9.7,9.7,0,0,0,9.69,9.7h20.8V122Z"/></g></g></svg>