<svg xmlns="http://www.w3.org/2000/svg" xmlns:xlink="http://www.w3.org/1999/xlink" viewBox="0 0 250 150"><defs><style>.cls-1{fill:#eee;}.cls-2{fill:url(#名称未設定グラデーション_2455);}.cls-13,.cls-3,.cls-7{fill:none;stroke-miterlimit:10;}.cls-3{stroke-width:5px;stroke:url(#名称未設定グラデーション_1525);}.cls-4{fill:url(#名称未設定グラデーション_2467);}.cls-5{fill:url(#名称未設定グラデーション_1525-2);}.cls-6{fill:url(#名称未設定グラデーション_4383);}.cls-13,.cls-7{stroke:#5e4640;}.cls-7{stroke-width:2px;}.cls-8{fill:url(#名称未設定グラデーション_4147);}.cls-9{fill:url(#名称未設定グラデーション_4246);}.cls-10{fill:url(#名称未設定グラデーション_4235);}.cls-11{fill:#383838;}.cls-12{fill:url(#名称未設定グラデーション_3869);}.cls-14{fill:url(#名称未設定グラデーション_3599);}.cls-15{fill:url(#名称未設定グラデーション_3636);}</style><linearGradient id="名称未設定グラデーション_2455" x1="49.03" y1="51.35" x2="111.31" y2="51.35" gradientTransform="translate(0 0)" gradientUnits="userSpaceOnUse"><stop offset="0.01" stop-color="#688da6" stop-opacity="0.7"/><stop offset="1" stop-color="#56729f"/></linearGradient><linearGradient id="名称未設定グラデーション_1525" x1="61.45" y1="36.96" x2="93.35" y2="68.86" gradientTransform="translate(0 0)" gradientUnits="userSpaceOnUse"><stop offset="0" stop-color="#7fd1fb"/><stop offset="1" stop-color="#1e74ff"/></linearGradient><linearGradient id="名称未設定グラデーション_2467" x1="61.11" y1="30.35" x2="98.71" y2="67.95" gradientTransform="translate(0 0)" gradientUnits="userSpaceOnUse"><stop offset="0" stop-color="#8dd8fb"/><stop offset="1" stop-color="#1e74ff"/></linearGradient><linearGradient id="名称未設定グラデーション_1525-2" x1="79.82" y1="17.6" x2="79.82" y2="17.6" xlink:href="#名称未設定グラデーション_1525"/><linearGradient id="名称未設定グラデーション_4383" x1="130.71" y1="84.67" x2="193.5" y2="84.67" gradientUnits="userSpaceOnUse"><stop offset="0" stop-color="#b2bfcb"/><stop offset="0.76" stop-color="#7d8b93"/><stop offset="1" stop-color="#6b7a80"/></linearGradient><linearGradient id="名称未設定グラデーション_4147" x1="171.7" y1="39.35" x2="186.26" y2="56.96" gradientUnits="userSpaceOnUse"><stop offset="0" stop-color="#ff817a"/><stop offset="0.53" stop-color="#c7524c"/><stop offset="1" stop-color="#922722"/></linearGradient><linearGradient id="名称未設定グラデーション_4246" x1="144.26" y1="87.62" x2="182.27" y2="126.19" gradientUnits="userSpaceOnUse"><stop offset="0" stop-color="#dae6e6"/><stop offset="1" stop-color="#a9b3c0"/></linearGradient><linearGradient id="名称未設定グラデーション_4235" x1="147.65" y1="50.82" x2="178.61" y2="82.23" gradientUnits="userSpaceOnUse"><stop offset="0" stop-color="#e2eeee"/><stop offset="0.98" stop-color="#b2b5b9"/><stop offset="1" stop-color="#b1b4b8"/></linearGradient><linearGradient id="名称未設定グラデーション_3869" x1="134.91" y1="73.12" x2="151.25" y2="73.12" gradientTransform="translate(-5.55 11.79) rotate(-6.53)" gradientUnits="userSpaceOnUse"><stop offset="0" stop-color="#ffa67c"/><stop offset="0.65" stop-color="#f67544"/><stop offset="1" stop-color="#f15a24"/></linearGradient><linearGradient id="名称未設定グラデーション_3599" x1="78.63" y1="108.2" x2="122.12" y2="108.2" gradientUnits="userSpaceOnUse"><stop offset="0" stop-color="#b3b3b3" stop-opacity="0.4"/><stop offset="1" stop-color="#4d4d4d"/></linearGradient><linearGradient id="名称未設定グラデーション_3636" x1="77.88" y1="107.8" x2="121.37" y2="107.8" gradientUnits="userSpaceOnUse"><stop offset="0" stop-color="#ccc"/><stop offset="1" stop-color="#666"/></linearGradient></defs><g id="レイヤー_15" data-name="レイヤー 15"><rect class="cls-1" width="250" height="150"/></g><g id="雨_" data-name="雨→"><g id="レイヤー_27" data-name="レイヤー 27"><path class="cls-2" d="M64.8,46ZM81.9,76.69V21.78H78.44V76.69c0,2.3-1.42,4.25-3.11,4.25s-3.11-2-3.11-4.25H68.76c0,4.25,2.94,7.71,6.57,7.71S81.9,80.94,81.9,76.69ZM59.41,48.77c5.07,0,9.3,2,10.2,6.45a.19.19,0,0,0,.37,0c.91-4.29,5.13-5.76,10.19-5.76s9.29,1.47,10.2,5.77a.18.18,0,0,0,.36,0c.91-4.3,5.14-5.77,10.2-5.77,3.46,0,10.38,1.19,10.38,6.92,0-17.2-13.94-30.45-31.14-30.45S49,38.49,49,55.69C49,50,56,48.77,59.41,48.77ZM80.17,18.29ZM65,18.32"/><path class="cls-3" d="M79.83,21.09V76c0,3.3-2.17,6-4.85,6h0c-2.67,0-4.84-2.68-4.84-6"/><path class="cls-4" d="M48.69,55c0-17.19,13.94-29.75,31.14-29.75S111,38.49,111,55.69c0-5.73-6.92-6.92-10.38-6.92-5.07,0-9.29,1.47-10.2,5.77a.18.18,0,0,1-.36,0c-.91-4.3-5.14-5.77-10.2-5.77s-9.28,1.46-10.2,5.76a.18.18,0,0,1-.36,0c-.91-4.44-5.13-6.46-10.2-6.46C55.61,48.07,48.69,49.26,48.69,55Z"/><path class="cls-5" d="M79.83,17.6"/><path class="cls-6" d="M146.47,95.14l-15.76-18,1.16-1,15.76,18Zm42.78-49-10.49-9.25L166.4,48.16l13.23,11.66Zm-28,32.16a27.08,27.08,0,1,0,27.08,27.08A27.07,27.07,0,0,0,161.22,78.3Zm.39-34.82a22.05,22.05,0,1,0,22,22.05A22,22,0,0,0,161.61,43.48ZM148.45,59a2.71,2.71,0,1,0,2.71,2.71A2.71,2.71,0,0,0,148.45,59Zm14.7,3.1a2.71,2.71,0,1,0,2.71,2.71A2.7,2.7,0,0,0,163.15,62.05ZM138,68.84l11.62,3.44a3.23,3.23,0,0,0,4.14-2.82l0-.44a3.24,3.24,0,0,0-3.59-3.49l-12,1.38A1,1,0,0,0,138,68.84Zm17.66,8.4a3.11,3.11,0,0,0,2.66-3.51l-.77.09a2.3,2.3,0,1,1-4.56.58l-.77.09a3.14,3.14,0,0,0,3.07,2.78A2.31,2.31,0,0,0,155.67,77.24Zm37.83,2.37-1.12-1.07-17,17.79,1.12,1.07Z"/><line class="cls-7" x1="130.5" y1="75.32" x2="146.26" y2="93.28"/><polygon class="cls-8" points="178.85 58.47 165.61 46.81 177.97 35.55 188.46 44.79 178.85 58.47"/><circle class="cls-9" cx="160.43" cy="104.03" r="27.08"/><circle class="cls-10" cx="160.82" cy="64.18" r="22.05"/><circle class="cls-11" cx="147.67" cy="60.31" r="2.71"/><circle class="cls-11" cx="162.37" cy="63.41" r="2.71"/><path class="cls-12" d="M137.23,67.49l11.62,3.44A3.23,3.23,0,0,0,153,68.11l0-.44a3.23,3.23,0,0,0-3.59-3.49l-12,1.38A1,1,0,0,0,137.23,67.49Z"/><path class="cls-13" d="M157.16,72.43a2.69,2.69,0,1,1-5.33.67"/><line class="cls-7" x1="192.15" y1="77.72" x2="175.13" y2="95.52"/><path class="cls-14" d="M122.12,110.7,109.12,99v8.5H88.32a2.68,2.68,0,0,1-2.69-2.69V94h-7v10.81a9.69,9.69,0,0,0,9.69,9.69h20.8v7.82Z"/><path class="cls-15" d="M121.37,110.3l-13-11.66v8.5H87.57a2.69,2.69,0,0,1-2.69-2.7V93.64h-7v10.8a9.7,9.7,0,0,0,9.69,9.7h20.8V122Z"/></g></g></svg>