<svg xmlns="http://www.w3.org/2000/svg" xmlns:xlink="http://www.w3.org/1999/xlink" viewBox="0 0 250 150"><defs><style>.cls-1{fill:#eee;}.cls-2{fill:url(#名称未設定グラデーション_10);}.cls-3{fill:url(#名称未設定グラデーション_2455);}.cls-4,.cls-7{fill:none;stroke-miterlimit:10;}.cls-4{stroke-width:5px;stroke:url(#名称未設定グラデーション_1525);}.cls-5{fill:url(#名称未設定グラデーション_2467);}.cls-6{fill:url(#名称未設定グラデーション_1525-2);}.cls-7{stroke-width:9px;stroke:url(#名称未設定グラデーション_1525-3);}</style><linearGradient id="名称未設定グラデーション_10" x1="169.78" y1="72" x2="169.78" y2="72" gradientTransform="translate(0 0)" gradientUnits="userSpaceOnUse"><stop offset="0" stop-color="#ff9c68"/><stop offset="1" stop-color="#f13700"/></linearGradient><linearGradient id="名称未設定グラデーション_2455" x1="70.61" y1="75.61" x2="180" y2="75.61" gradientTransform="translate(0 0)" gradientUnits="userSpaceOnUse"><stop offset="0.01" stop-color="#688da6" stop-opacity="0.7"/><stop offset="1" stop-color="#56729f"/></linearGradient><linearGradient id="名称未設定グラデーション_1525" x1="93.57" y1="51.09" x2="147.31" y2="104.84" gradientTransform="translate(0 0)" gradientUnits="userSpaceOnUse"><stop offset="0" stop-color="#7fd1fb"/><stop offset="1" stop-color="#1e74ff"/></linearGradient><linearGradient id="名称未設定グラデーション_2467" x1="91.82" y1="38.73" x2="157.86" y2="104.76" gradientTransform="translate(0 0)" gradientUnits="userSpaceOnUse"><stop offset="0" stop-color="#8dd8fb"/><stop offset="1" stop-color="#1e74ff"/></linearGradient><linearGradient id="名称未設定グラデーション_1525-2" x1="124.69" y1="16.34" x2="124.69" y2="16.34" xlink:href="#名称未設定グラデーション_1525"/><linearGradient id="名称未設定グラデーション_1525-3" x1="170" y1="32" x2="170" y2="32" xlink:href="#名称未設定グラデーション_1525"/></defs><g id="レイヤー_15" data-name="レイヤー 15"><rect class="cls-1" width="250" height="150"/></g><g id="雨"><g id="レイヤー_6" data-name="レイヤー 6"><path class="cls-2" d="M169.78,72"/><path class="cls-3" d="M98.3,66.22Zm30,53.9V23.68h-6.07v96.44c0,4-2.51,7.47-5.47,7.47s-5.47-3.42-5.47-7.47h-6.08c0,7.47,5.18,13.55,11.55,13.55S128.34,127.59,128.34,120.12Zm-39.5-49c8.91,0,16.33,3.54,17.92,11.33a.33.33,0,0,0,.64,0c1.6-7.54,9-10.12,17.9-10.12s16.32,2.59,17.92,10.14a.32.32,0,0,0,.63,0c1.6-7.55,9-10.14,17.92-10.14,6.08,0,18.23,2.09,18.23,12.16C180,54.24,155.51,31,125.3,31S70.61,53,70.61,83.23C70.61,73.17,82.76,71.08,88.84,71.08ZM125.3,17.55Zm-26.74.05"/><path class="cls-4" d="M124.7,22.46v96.45c0,5.8-3.81,10.5-8.51,10.5h0c-4.7,0-8.51-4.7-8.51-10.5"/><path class="cls-5" d="M70,82c0-30.2,24.49-52.26,54.7-52.26S179.39,53,179.39,83.23c0-10.06-12.15-12.15-18.23-12.15-8.9,0-16.32,2.58-17.91,10.14a.33.33,0,0,1-.64,0c-1.6-7.56-9-10.14-17.91-10.14s-16.3,2.58-17.91,10.11a.33.33,0,0,1-.64,0c-1.59-7.79-9-11.33-17.92-11.33C82.15,69.86,70,72,70,82Z"/><path class="cls-6" d="M124.7,16.33"/><path class="cls-7" d="M170,32"/></g></g></svg>