<svg xmlns="http://www.w3.org/2000/svg" xmlns:xlink="http://www.w3.org/1999/xlink" viewBox="0 0 250 150"><defs><style>.cls-1{fill:#eee;}.cls-2{fill:url(#名称未設定グラデーション_1193);}.cls-3{fill:url(#名称未設定グラデーション_60);}.cls-4{fill:url(#名称未設定グラデーション_10);}.cls-5{fill:url(#名称未設定グラデーション_2455);}.cls-6{fill:none;stroke-miterlimit:10;stroke-width:5px;stroke:url(#名称未設定グラデーション_1525);}.cls-7{fill:url(#名称未設定グラデーション_2467);}.cls-8{fill:url(#名称未設定グラデーション_1525-2);}.cls-9{fill:url(#名称未設定グラデーション_3599);}.cls-10{fill:url(#名称未設定グラデーション_3636);}</style><linearGradient id="名称未設定グラデーション_1193" x1="114.95" y1="85.39" x2="205.5" y2="85.39" gradientUnits="userSpaceOnUse"><stop offset="0" stop-color="#998675" stop-opacity="0.4"/><stop offset="1" stop-color="#736357"/></linearGradient><linearGradient id="名称未設定グラデーション_60" x1="130.69" y1="56.6" x2="195.8" y2="119.31" gradientUnits="userSpaceOnUse"><stop offset="0" stop-color="#ffb379"/><stop offset="1" stop-color="#f22506"/></linearGradient><linearGradient id="名称未設定グラデーション_10" x1="143.46" y1="68.3" x2="176.09" y2="100.92" gradientUnits="userSpaceOnUse"><stop offset="0" stop-color="#ff9c68"/><stop offset="1" stop-color="#f13700"/></linearGradient><linearGradient id="名称未設定グラデーション_2455" x1="49.03" y1="51.35" x2="111.31" y2="51.35" gradientTransform="translate(0 0)" gradientUnits="userSpaceOnUse"><stop offset="0.01" stop-color="#688da6" stop-opacity="0.7"/><stop offset="1" stop-color="#56729f"/></linearGradient><linearGradient id="名称未設定グラデーション_1525" x1="61.45" y1="36.96" x2="93.35" y2="68.86" gradientTransform="translate(0 0)" gradientUnits="userSpaceOnUse"><stop offset="0" stop-color="#7fd1fb"/><stop offset="1" stop-color="#1e74ff"/></linearGradient><linearGradient id="名称未設定グラデーション_2467" x1="61.11" y1="30.35" x2="98.71" y2="67.95" gradientTransform="translate(0 0)" gradientUnits="userSpaceOnUse"><stop offset="0" stop-color="#8dd8fb"/><stop offset="1" stop-color="#1e74ff"/></linearGradient><linearGradient id="名称未設定グラデーション_1525-2" x1="79.82" y1="17.6" x2="79.82" y2="17.6" xlink:href="#名称未設定グラデーション_1525"/><linearGradient id="名称未設定グラデーション_3599" x1="78.63" y1="108.2" x2="122.12" y2="108.2" gradientUnits="userSpaceOnUse"><stop offset="0" stop-color="#b3b3b3" stop-opacity="0.4"/><stop offset="1" stop-color="#4d4d4d"/></linearGradient><linearGradient id="名称未設定グラデーション_3636" x1="77.88" y1="107.8" x2="121.37" y2="107.8" gradientUnits="userSpaceOnUse"><stop offset="0" stop-color="#ccc"/><stop offset="1" stop-color="#666"/></linearGradient></defs><g id="レイヤー_15" data-name="レイヤー 15"><rect class="cls-1" width="250" height="150"/></g><g id="雨_" data-name="雨→"><g id="レイヤー_25" data-name="レイヤー 25"><path class="cls-2" d="M183.33,85.39a23.11,23.11,0,1,1-23.1-23A23.06,23.06,0,0,1,183.33,85.39ZM159.61,40.28l-8.16,18.79h16.32ZM146.89,61.46,135.35,73l-7.57-19ZM133.82,77.87V94.13L115,86Zm2.4,20.81,11.53,11.5-19.1,7.54Zm16.46,13H169l-8.16,18.8Zm20.88-2.39,11.54-11.5,7.57,19Zm13.08-16.4V76.65l18.86,8.13Zm-2.4-20.81L172.7,60.6l19.11-7.54Z"/><path class="cls-3" d="M167.32,58.3H151l8.16-18.8Zm-40-5.15,7.57,19,11.54-11.5ZM114.5,85.22l18.86,8.13V77.09Zm13.69,31.72,19.11-7.54L135.76,97.9Zm32.2,12.78,8.16-18.79H152.23Zm31.83-13.64-7.57-19-11.54,11.5ZM205.05,84l-18.87-8.13V92.13Zm-13.7-31.72-19.1,7.54,11.53,11.5Z"/><ellipse class="cls-4" cx="159.77" cy="84.61" rx="23.11" ry="23.03"/><path class="cls-5" d="M64.8,46ZM81.9,76.69V21.78H78.44V76.69c0,2.3-1.42,4.25-3.11,4.25s-3.11-2-3.11-4.25H68.76c0,4.25,2.94,7.71,6.57,7.71S81.9,80.94,81.9,76.69ZM59.41,48.77c5.07,0,9.3,2,10.2,6.45a.19.19,0,0,0,.37,0c.91-4.29,5.13-5.76,10.19-5.76s9.29,1.47,10.2,5.77a.18.18,0,0,0,.36,0c.91-4.3,5.14-5.77,10.2-5.77,3.46,0,10.38,1.19,10.38,6.92,0-17.2-13.94-30.45-31.14-30.45S49,38.49,49,55.69C49,50,56,48.77,59.41,48.77ZM80.17,18.29ZM65,18.32"/><path class="cls-6" d="M79.83,21.09V76c0,3.3-2.17,6-4.85,6h0c-2.67,0-4.84-2.68-4.84-6"/><path class="cls-7" d="M48.69,55c0-17.19,13.94-29.75,31.14-29.75S111,38.49,111,55.69c0-5.73-6.92-6.92-10.38-6.92-5.07,0-9.29,1.47-10.2,5.77a.18.18,0,0,1-.36,0c-.91-4.3-5.14-5.77-10.2-5.77s-9.28,1.46-10.2,5.76a.18.18,0,0,1-.36,0c-.91-4.44-5.13-6.46-10.2-6.46C55.61,48.07,48.69,49.26,48.69,55Z"/><path class="cls-8" d="M79.83,17.6"/><path class="cls-9" d="M122.12,110.7,109.12,99v8.5H88.32a2.68,2.68,0,0,1-2.69-2.69V94h-7v10.81a9.69,9.69,0,0,0,9.69,9.69h20.8v7.82Z"/><path class="cls-10" d="M121.37,110.3l-13-11.66v8.5H87.57a2.69,2.69,0,0,1-2.69-2.7V93.64h-7v10.8a9.7,9.7,0,0,0,9.69,9.7h20.8V122Z"/></g></g></svg>