<svg xmlns="http://www.w3.org/2000/svg" xmlns:xlink="http://www.w3.org/1999/xlink" viewBox="0 0 250 150"><defs><style>.cls-1{fill:#eee;}.cls-2{fill:url(#名称未設定グラデーション_2455);}.cls-13,.cls-3,.cls-7{fill:none;stroke-miterlimit:10;}.cls-3{stroke-width:5px;stroke:url(#名称未設定グラデーション_1525);}.cls-4{fill:url(#名称未設定グラデーション_2467);}.cls-5{fill:url(#名称未設定グラデーション_1525-2);}.cls-6{fill:url(#名称未設定グラデーション_4383);}.cls-13,.cls-7{stroke:#5e4640;}.cls-7{stroke-width:2px;}.cls-8{fill:url(#名称未設定グラデーション_4147);}.cls-9{fill:url(#名称未設定グラデーション_4246);}.cls-10{fill:url(#名称未設定グラデーション_4235);}.cls-11{fill:#383838;}.cls-12{fill:url(#名称未設定グラデーション_3869);}.cls-14{fill:url(#名称未設定グラデーション_3599);}.cls-15{fill:url(#名称未設定グラデーション_3636);}</style><linearGradient id="名称未設定グラデーション_2455" x1="113.56" y1="84.5" x2="202.93" y2="84.5" gradientTransform="translate(0 0)" gradientUnits="userSpaceOnUse"><stop offset="0.01" stop-color="#688da6" stop-opacity="0.7"/><stop offset="1" stop-color="#56729f"/></linearGradient><linearGradient id="名称未設定グラデーション_1525" x1="131.93" y1="64.17" x2="176.62" y2="108.86" gradientTransform="translate(0 0)" gradientUnits="userSpaceOnUse"><stop offset="0" stop-color="#7fd1fb"/><stop offset="1" stop-color="#1e74ff"/></linearGradient><linearGradient id="名称未設定グラデーション_2467" x1="130.85" y1="54.27" x2="184.89" y2="108.31" gradientTransform="translate(0 0)" gradientUnits="userSpaceOnUse"><stop offset="0" stop-color="#8dd8fb"/><stop offset="1" stop-color="#1e74ff"/></linearGradient><linearGradient id="名称未設定グラデーション_1525-2" x1="157.75" y1="35.81" x2="157.75" y2="35.81" xlink:href="#名称未設定グラデーション_1525"/><linearGradient id="名称未設定グラデーション_4383" x1="54.48" y1="54.44" x2="95.65" y2="54.44" gradientUnits="userSpaceOnUse"><stop offset="0" stop-color="#b2bfcb"/><stop offset="0.76" stop-color="#7d8b93"/><stop offset="1" stop-color="#6b7a80"/></linearGradient><linearGradient id="名称未設定グラデーション_4147" x1="81.34" y1="24.56" x2="90.94" y2="36.17" gradientUnits="userSpaceOnUse"><stop offset="0" stop-color="#ff817a"/><stop offset="0.53" stop-color="#c7524c"/><stop offset="1" stop-color="#922722"/></linearGradient><linearGradient id="名称未設定グラデーション_4246" x1="63.34" y1="56.41" x2="88.33" y2="81.77" gradientUnits="userSpaceOnUse"><stop offset="0" stop-color="#dae6e6"/><stop offset="1" stop-color="#a9b3c0"/></linearGradient><linearGradient id="名称未設定グラデーション_4235" x1="65.57" y1="32.15" x2="85.92" y2="52.8" gradientUnits="userSpaceOnUse"><stop offset="0" stop-color="#e2eeee"/><stop offset="0.98" stop-color="#b2b5b9"/><stop offset="1" stop-color="#b1b4b8"/></linearGradient><linearGradient id="名称未設定グラデーション_3869" x1="60.06" y1="39.42" x2="70.62" y2="39.42" gradientTransform="translate(-5.55 11.79) rotate(-6.53)" gradientUnits="userSpaceOnUse"><stop offset="0" stop-color="#ffa67c"/><stop offset="0.65" stop-color="#f67544"/><stop offset="1" stop-color="#f15a24"/></linearGradient><linearGradient id="名称未設定グラデーション_3599" x1="78.66" y1="108.2" x2="122.09" y2="108.2" gradientUnits="userSpaceOnUse"><stop offset="0" stop-color="#b3b3b3" stop-opacity="0.4"/><stop offset="1" stop-color="#4d4d4d"/></linearGradient><linearGradient id="名称未設定グラデーション_3636" x1="77.91" y1="107.8" x2="121.34" y2="107.8" gradientUnits="userSpaceOnUse"><stop offset="0" stop-color="#ccc"/><stop offset="1" stop-color="#666"/></linearGradient></defs><g id="レイヤー_15" data-name="レイヤー 15"><rect class="cls-1" width="250" height="150"/></g><g id="雪_" data-name="雪→"><g id="レイヤー_34" data-name="レイヤー 34"><path class="cls-2" d="M136.19,76.78Zm24.54,44.29V41.84h-5v79.23c0,3.32-2.05,6.13-4.47,6.13s-4.47-2.81-4.47-6.13h-5c0,6.13,4.24,11.12,9.44,11.12S160.73,127.2,160.73,121.07ZM128.46,80.78c7.28,0,13.34,2.91,14.64,9.31a.27.27,0,0,0,.52,0c1.31-6.2,7.37-8.31,14.63-8.31s13.33,2.12,14.63,8.33a.27.27,0,0,0,.52,0c1.31-6.21,7.37-8.33,14.64-8.33,5,0,14.89,1.71,14.89,10,0-24.81-20-43.93-44.68-43.93S113.56,66,113.56,90.76C113.56,82.49,123.49,80.78,128.46,80.78Zm29.79-44Zm-21.85,0"/><path class="cls-3" d="M157.75,40.84v79.23c0,4.77-3.11,8.63-6.95,8.63h0c-3.84,0-7-3.86-7-8.63"/><path class="cls-4" d="M113.07,89.76c0-24.81,20-42.93,44.68-42.93S202.44,66,202.44,90.76c0-8.27-9.93-10-14.9-10-7.27,0-13.33,2.12-14.63,8.33a.27.27,0,0,1-.52,0c-1.31-6.21-7.37-8.33-14.64-8.33s-13.32,2.12-14.63,8.31a.27.27,0,0,1-.52,0c-1.3-6.4-7.36-9.31-14.64-9.31C123,79.78,113.07,81.5,113.07,89.76Z"/><path class="cls-5" d="M157.75,35.81"/><path class="cls-6" d="M64.82,61.34,54.48,49.5l.77-.67L65.58,60.67Zm28-32.3L86,23l-8.1,7.42,8.68,7.69ZM74.49,50.24A17.85,17.85,0,1,0,92.24,68.09,17.79,17.79,0,0,0,74.49,50.24Zm.25-23A14.54,14.54,0,1,0,89.2,41.82,14.49,14.49,0,0,0,74.74,27.29Zm-8.62,10.2a1.79,1.79,0,1,0,1.77,1.78A1.78,1.78,0,0,0,66.12,37.49Zm9.64,2a1.79,1.79,0,1,0,1.77,1.78A1.78,1.78,0,0,0,75.76,39.53ZM59.43,44.05l7.32,2.18a2.24,2.24,0,0,0,2.87-1.95v0a2.24,2.24,0,0,0-2.49-2.42l-7.58.87A.69.69,0,0,0,59.43,44.05Zm11.42,5.5a2.05,2.05,0,0,0,1.74-2.32l-.5.06a1.51,1.51,0,1,1-3,.38l-.5.06a2,2,0,0,0,2,1.83Zm24.8,1.55-.73-.7L83.76,62.13l.73.7Z"/><line class="cls-7" x1="54.35" y1="48.28" x2="64.68" y2="60.12"/><polygon class="cls-8" points="86.04 37.17 77.37 29.48 85.47 22.06 92.35 28.16 86.04 37.17"/><ellipse class="cls-9" cx="73.97" cy="67.2" rx="17.75" ry="17.85"/><ellipse class="cls-10" cx="74.23" cy="40.94" rx="14.46" ry="14.54"/><ellipse class="cls-11" cx="65.6" cy="38.39" rx="1.78" ry="1.79"/><ellipse class="cls-11" cx="75.24" cy="40.43" rx="1.78" ry="1.79"/><path class="cls-12" d="M58.91,43.16l7.32,2.18a2.24,2.24,0,0,0,2.87-2v0A2.24,2.24,0,0,0,66.61,41L59,41.82A.69.69,0,0,0,58.91,43.16Z"/><path class="cls-13" d="M71.83,46.37a1.76,1.76,0,1,1-3.5.44"/><line class="cls-7" x1="94.77" y1="49.86" x2="83.61" y2="61.59"/><path class="cls-14" d="M122.09,110.71l-13-11.7v8.53H88.34a2.69,2.69,0,0,1-2.69-2.7V94h-7v10.85a9.72,9.72,0,0,0,9.68,9.73h20.77v7.85Z"/><path class="cls-15" d="M121.34,110.31l-13-11.71v8.53H87.59a2.7,2.7,0,0,1-2.69-2.7V93.58h-7v10.85a9.71,9.71,0,0,0,9.68,9.73h20.77V122Z"/></g></g></svg>