<svg xmlns="http://www.w3.org/2000/svg" xmlns:xlink="http://www.w3.org/1999/xlink" viewBox="0 0 250 150"><defs><style>.cls-1{fill:#eee;}.cls-2{fill:url(#名称未設定グラデーション_4383);}.cls-3,.cls-9{fill:none;stroke:#5e4640;stroke-miterlimit:10;}.cls-3{stroke-width:2px;}.cls-4{fill:url(#名称未設定グラデーション_4147);}.cls-5{fill:url(#名称未設定グラデーション_4246);}.cls-6{fill:url(#名称未設定グラデーション_4235);}.cls-7{fill:#383838;}.cls-8{fill:url(#名称未設定グラデーション_3869);}</style><linearGradient id="名称未設定グラデーション_4383" x1="84.56" y1="76.24" x2="165.72" y2="76.24" gradientUnits="userSpaceOnUse"><stop offset="0" stop-color="#b2bfcb"/><stop offset="0.76" stop-color="#7d8b93"/><stop offset="1" stop-color="#6b7a80"/></linearGradient><linearGradient id="名称未設定グラデーション_4147" x1="137.55" y1="17.66" x2="156.37" y2="40.42" gradientUnits="userSpaceOnUse"><stop offset="0" stop-color="#ff817a"/><stop offset="0.53" stop-color="#c7524c"/><stop offset="1" stop-color="#922722"/></linearGradient><linearGradient id="名称未設定グラデーション_4246" x1="102.08" y1="80.05" x2="151.21" y2="129.9" gradientUnits="userSpaceOnUse"><stop offset="0" stop-color="#dae6e6"/><stop offset="1" stop-color="#a9b3c0"/></linearGradient><linearGradient id="名称未設定グラデーション_4235" x1="106.46" y1="32.48" x2="146.47" y2="73.08" gradientUnits="userSpaceOnUse"><stop offset="0" stop-color="#e2eeee"/><stop offset="0.98" stop-color="#b2b5b9"/><stop offset="1" stop-color="#b1b4b8"/></linearGradient><linearGradient id="名称未設定グラデーション_3869" x1="91.47" y1="55.31" x2="113.6" y2="55.31" gradientTransform="translate(-5.55 11.79) rotate(-6.53)" gradientUnits="userSpaceOnUse"><stop offset="0" stop-color="#ffa67c"/><stop offset="0.65" stop-color="#f67544"/><stop offset="1" stop-color="#f15a24"/></linearGradient></defs><g id="レイヤー_15" data-name="レイヤー 15"><rect class="cls-1" width="250" height="150"/></g><g id="雪"><path class="cls-2" d="M104.94,89.77,84.56,66.55l1.5-1.32,20.38,23.22Zm55.29-63.33-13.56-12L130.7,29l17.1,15.07ZM124,68a35,35,0,1,0,35,35A35,35,0,0,0,124,68Zm.5-45A28.5,28.5,0,1,0,153,51.5,28.5,28.5,0,0,0,124.5,23Zm-17,20a3.5,3.5,0,1,0,3.5,3.5A3.5,3.5,0,0,0,107.5,43Zm19,4a3.5,3.5,0,1,0,3.5,3.5A3.5,3.5,0,0,0,126.5,47ZM93,55.47l16.88,5a3.47,3.47,0,0,0,4.44-3l.2-2.31a3.47,3.47,0,0,0-3.85-3.74l-17.49,2A1.06,1.06,0,0,0,93,55.47Zm23.85,11.17a4,4,0,0,0,3.43-4.55l-1,.13a3,3,0,1,1-5.9.74l-1,.13a4.05,4.05,0,0,0,4,3.58A3.87,3.87,0,0,0,116.83,66.64Zm48.89,3-1.44-1.38-22,23,1.44,1.38Z"/><line class="cls-3" x1="84.29" y1="64.15" x2="104.67" y2="87.36"/><polygon class="cls-4" points="146.78 42.37 129.68 27.3 145.65 12.74 159.21 24.7 146.78 42.37"/><circle class="cls-5" cx="122.98" cy="101.26" r="35"/><circle class="cls-6" cx="123.48" cy="49.76" r="28.5"/><circle class="cls-7" cx="106.48" cy="44.76" r="3.5"/><circle class="cls-7" cx="125.48" cy="48.76" r="3.5"/><path class="cls-8" d="M92,53.72l16.87,5a3.47,3.47,0,0,0,4.44-3l.2-2.3a3.47,3.47,0,0,0-3.85-3.74l-17.48,2A1.05,1.05,0,0,0,92,53.72Z"/><path class="cls-9" d="M118.75,60.41a3.47,3.47,0,1,1-6.89.87"/><line class="cls-3" x1="163.98" y1="67.26" x2="141.98" y2="90.26"/></g></svg>