<svg xmlns="http://www.w3.org/2000/svg" xmlns:xlink="http://www.w3.org/1999/xlink" viewBox="0 0 250 150"><defs><style>.cls-1{fill:#eee;}.cls-2{fill:url(#名称未設定グラデーション_1193);}.cls-3{fill:url(#名称未設定グラデーション_60);}.cls-4{fill:url(#名称未設定グラデーション_10);}.cls-5{fill:url(#名称未設定グラデーション_4383);}.cls-12,.cls-6{fill:none;stroke:#5e4640;stroke-miterlimit:10;}.cls-6{stroke-width:2px;}.cls-7{fill:url(#名称未設定グラデーション_4147);}.cls-8{fill:url(#名称未設定グラデーション_4246);}.cls-9{fill:url(#名称未設定グラデーション_4235);}.cls-10{fill:#383838;}.cls-11{fill:url(#名称未設定グラデーション_3869);}.cls-13{fill:url(#名称未設定グラデーション_3599);}.cls-14{fill:url(#名称未設定グラデーション_3636);}</style><linearGradient id="名称未設定グラデーション_1193" x1="114.95" y1="85.39" x2="205.5" y2="85.39" gradientUnits="userSpaceOnUse"><stop offset="0" stop-color="#998675" stop-opacity="0.4"/><stop offset="1" stop-color="#736357"/></linearGradient><linearGradient id="名称未設定グラデーション_60" x1="130.69" y1="56.6" x2="195.8" y2="119.31" gradientUnits="userSpaceOnUse"><stop offset="0" stop-color="#ffb379"/><stop offset="1" stop-color="#f22506"/></linearGradient><linearGradient id="名称未設定グラデーション_10" x1="143.46" y1="68.3" x2="176.09" y2="100.92" gradientUnits="userSpaceOnUse"><stop offset="0" stop-color="#ff9c68"/><stop offset="1" stop-color="#f13700"/></linearGradient><linearGradient id="名称未設定グラデーション_4383" x1="54.45" y1="54.44" x2="95.68" y2="54.44" gradientUnits="userSpaceOnUse"><stop offset="0" stop-color="#b2bfcb"/><stop offset="0.76" stop-color="#7d8b93"/><stop offset="1" stop-color="#6b7a80"/></linearGradient><linearGradient id="名称未設定グラデーション_4147" x1="81.37" y1="24.68" x2="90.93" y2="36.25" gradientUnits="userSpaceOnUse"><stop offset="0" stop-color="#ff817a"/><stop offset="0.53" stop-color="#c7524c"/><stop offset="1" stop-color="#922722"/></linearGradient><linearGradient id="名称未設定グラデーション_4246" x1="63.35" y1="56.37" x2="88.31" y2="81.7" gradientUnits="userSpaceOnUse"><stop offset="0" stop-color="#dae6e6"/><stop offset="1" stop-color="#a9b3c0"/></linearGradient><linearGradient id="名称未設定グラデーション_4235" x1="65.58" y1="32.21" x2="85.9" y2="52.84" gradientUnits="userSpaceOnUse"><stop offset="0" stop-color="#e2eeee"/><stop offset="0.98" stop-color="#b2b5b9"/><stop offset="1" stop-color="#b1b4b8"/></linearGradient><linearGradient id="名称未設定グラデーション_3869" x1="60.04" y1="39.47" x2="70.61" y2="39.47" gradientTransform="translate(-5.55 11.79) rotate(-6.53)" gradientUnits="userSpaceOnUse"><stop offset="0" stop-color="#ffa67c"/><stop offset="0.65" stop-color="#f67544"/><stop offset="1" stop-color="#f15a24"/></linearGradient><linearGradient id="名称未設定グラデーション_3599" x1="78.63" y1="108.2" x2="122.12" y2="108.2" gradientUnits="userSpaceOnUse"><stop offset="0" stop-color="#b3b3b3" stop-opacity="0.4"/><stop offset="1" stop-color="#4d4d4d"/></linearGradient><linearGradient id="名称未設定グラデーション_3636" x1="77.88" y1="107.8" x2="121.37" y2="107.8" gradientUnits="userSpaceOnUse"><stop offset="0" stop-color="#ccc"/><stop offset="1" stop-color="#666"/></linearGradient></defs><g id="レイヤー_15" data-name="レイヤー 15"><rect class="cls-1" width="250" height="150"/></g><g id="雪_" data-name="雪→"><g id="レイヤー_33" data-name="レイヤー 33"><path class="cls-2" d="M183.33,85.39a23.11,23.11,0,1,1-23.1-23A23.06,23.06,0,0,1,183.33,85.39ZM159.61,40.28l-8.16,18.79h16.32ZM146.89,61.46,135.35,73l-7.57-19ZM133.82,77.87V94.13L115,86Zm2.4,20.81,11.53,11.5-19.1,7.54Zm16.46,13H169l-8.16,18.8Zm20.88-2.39,11.54-11.5,7.57,19Zm13.08-16.4V76.65l18.86,8.13Zm-2.4-20.81L172.7,60.6l19.11-7.54Z"/><path class="cls-3" d="M167.32,58.3H151l8.16-18.8Zm-40-5.15,7.57,19,11.54-11.5ZM114.5,85.22l18.86,8.13V77.09Zm13.69,31.72,19.11-7.54L135.76,97.9Zm32.2,12.78,8.16-18.79H152.23Zm31.83-13.64-7.57-19-11.54,11.5ZM205.05,84l-18.87-8.13V92.13Zm-13.7-31.72-19.1,7.54,11.53,11.5Z"/><ellipse class="cls-4" cx="159.77" cy="84.61" rx="23.11" ry="23.03"/><path class="cls-5" d="M64.8,61.31,54.45,49.52l.77-.67L65.57,60.64ZM92.89,29.14,86,23.07l-8.11,7.4,8.69,7.65ZM74.49,50.26A17.78,17.78,0,1,0,92.27,68,17.78,17.78,0,0,0,74.49,50.26Zm.25-22.86A14.48,14.48,0,1,0,89.22,41.87,14.48,14.48,0,0,0,74.74,27.4ZM66.11,37.56a1.78,1.78,0,1,0,1.77,1.77A1.77,1.77,0,0,0,66.11,37.56Zm9.65,2a1.78,1.78,0,1,0,1.78,1.78A1.78,1.78,0,0,0,75.76,39.59Zm-16.34,4.5,7.32,2.17a2.24,2.24,0,0,0,2.87-1.95h0a2.24,2.24,0,0,0-2.49-2.42l-7.58.87A.68.68,0,0,0,59.42,44.09Zm11.43,5.47a2,2,0,0,0,1.74-2.31l-.5.07a1.51,1.51,0,1,1-3,.38l-.5.06a2,2,0,0,0,2,1.82Zm24.83,1.55-.73-.7L83.77,62.1l.74.7Z"/><line class="cls-6" x1="54.32" y1="48.3" x2="64.67" y2="60.09"/><polygon class="cls-7" points="86.06 37.24 77.37 29.58 85.48 22.19 92.38 28.26 86.06 37.24"/><circle class="cls-8" cx="73.97" cy="67.15" r="17.78"/><circle class="cls-9" cx="74.22" cy="40.99" r="14.48"/><circle class="cls-10" cx="65.59" cy="38.45" r="1.78"/><circle class="cls-10" cx="75.24" cy="40.48" r="1.78"/><path class="cls-11" d="M58.9,43.21l7.32,2.17a2.24,2.24,0,0,0,2.87-2h0A2.24,2.24,0,0,0,66.61,41L59,41.87A.69.69,0,0,0,58.9,43.21Z"/><path class="cls-12" d="M71.82,46.4a1.76,1.76,0,1,1-3.5.44"/><line class="cls-6" x1="94.8" y1="49.88" x2="83.62" y2="61.56"/><path class="cls-13" d="M122.12,110.7,109.12,99v8.5H88.32a2.68,2.68,0,0,1-2.69-2.69V94h-7v10.81a9.69,9.69,0,0,0,9.69,9.69h20.8v7.82Z"/><path class="cls-14" d="M121.37,110.3l-13-11.66v8.5H87.57a2.69,2.69,0,0,1-2.69-2.7V93.64h-7v10.8a9.7,9.7,0,0,0,9.69,9.7h20.8V122Z"/></g></g></svg>