<svg xmlns="http://www.w3.org/2000/svg" xmlns:xlink="http://www.w3.org/1999/xlink" viewBox="0 0 250 150"><defs><style>.cls-1{fill:#eee;}.cls-2{fill:url(#名称未設定グラデーション_3702);}.cls-3{fill:url(#名称未設定グラデーション_3649);}.cls-4{fill:url(#名称未設定グラデーション_3724);}.cls-5{fill:url(#名称未設定グラデーション_4383);}.cls-12,.cls-6{fill:none;stroke:#5e4640;stroke-miterlimit:10;}.cls-6{stroke-width:2px;}.cls-7{fill:url(#名称未設定グラデーション_4147);}.cls-8{fill:url(#名称未設定グラデーション_4246);}.cls-9{fill:url(#名称未設定グラデーション_4235);}.cls-10{fill:#383838;}.cls-11{fill:url(#名称未設定グラデーション_3869);}.cls-13{fill:url(#名称未設定グラデーション_3599);}.cls-14{fill:url(#名称未設定グラデーション_3636);}</style><linearGradient id="名称未設定グラデーション_3702" x1="127.8" y1="47.9" x2="205.05" y2="117.43" gradientUnits="userSpaceOnUse"><stop offset="0" stop-color="#b3b3b3" stop-opacity="0.5"/><stop offset="1" stop-color="#333" stop-opacity="0.8"/></linearGradient><linearGradient id="名称未設定グラデーション_3649" x1="165.73" y1="68.8" x2="166.83" y2="68.8" gradientUnits="userSpaceOnUse"><stop offset="0" stop-color="#e6e6e6"/><stop offset="1" stop-color="#666"/></linearGradient><linearGradient id="名称未設定グラデーション_3724" x1="126.27" y1="46" x2="203.53" y2="115.53" gradientUnits="userSpaceOnUse"><stop offset="0" stop-color="#e6e6e6"/><stop offset="0.12" stop-color="#d7d7d7"/><stop offset="0.51" stop-color="#aeaeae"/><stop offset="0.82" stop-color="#959595"/><stop offset="1" stop-color="#8c8c8c"/></linearGradient><linearGradient id="名称未設定グラデーション_4383" x1="54.45" y1="54.82" x2="95.68" y2="54.82" gradientUnits="userSpaceOnUse"><stop offset="0" stop-color="#b2bfcb"/><stop offset="0.76" stop-color="#7d8b93"/><stop offset="1" stop-color="#6b7a80"/></linearGradient><linearGradient id="名称未設定グラデーション_4147" x1="81.37" y1="25.06" x2="90.93" y2="36.62" gradientUnits="userSpaceOnUse"><stop offset="0" stop-color="#ff817a"/><stop offset="0.53" stop-color="#c7524c"/><stop offset="1" stop-color="#922722"/></linearGradient><linearGradient id="名称未設定グラデーション_4246" x1="63.35" y1="56.75" x2="88.31" y2="82.08" gradientUnits="userSpaceOnUse"><stop offset="0" stop-color="#dae6e6"/><stop offset="1" stop-color="#a9b3c0"/></linearGradient><linearGradient id="名称未設定グラデーション_4235" x1="65.58" y1="32.59" x2="85.9" y2="53.21" gradientUnits="userSpaceOnUse"><stop offset="0" stop-color="#e2eeee"/><stop offset="0.98" stop-color="#b2b5b9"/><stop offset="1" stop-color="#b1b4b8"/></linearGradient><linearGradient id="名称未設定グラデーション_3869" x1="60" y1="39.84" x2="70.56" y2="39.84" gradientTransform="translate(-5.55 11.79) rotate(-6.53)" gradientUnits="userSpaceOnUse"><stop offset="0" stop-color="#ffa67c"/><stop offset="0.65" stop-color="#f67544"/><stop offset="1" stop-color="#f15a24"/></linearGradient><linearGradient id="名称未設定グラデーション_3599" x1="78.63" y1="108.2" x2="122.12" y2="108.2" gradientUnits="userSpaceOnUse"><stop offset="0" stop-color="#b3b3b3" stop-opacity="0.4"/><stop offset="1" stop-color="#4d4d4d"/></linearGradient><linearGradient id="名称未設定グラデーション_3636" x1="77.88" y1="107.8" x2="121.37" y2="107.8" gradientUnits="userSpaceOnUse"><stop offset="0" stop-color="#ccc"/><stop offset="1" stop-color="#666"/></linearGradient></defs><g id="レイヤー_15" data-name="レイヤー 15"><rect class="cls-1" width="250" height="150"/></g><g id="雪_" data-name="雪→"><g id="レイヤー_35" data-name="レイヤー 35"><path class="cls-2" d="M198.5,61.25C195.44,52.29,188,46,179.32,46a18.58,18.58,0,0,0-12.27,4.76,18.32,18.32,0,0,0-15.92-9.84c-10.26,0-18.57,9.1-18.57,20.33v.12c-9.25,1.13-16.46,10.21-16.46,21.22,0,11.79,8.25,21.35,18.42,21.35a16,16,0,0,0,5.27-.9,25,25,0,0,0,16.43,6,25.5,25.5,0,0,0,12.9-3.44A16.88,16.88,0,0,0,179.27,109c7.47,0,13.92-5,16.9-12.26.45,0,.91.06,1.37.06a17.79,17.79,0,0,0,1-35.55Zm-30.14,9.09c-.38.31-.75.64-1.11,1,.22-.41.42-.81.61-1.24C168,70.16,168.19,70.24,168.36,70.34Z"/><path class="cls-3" d="M166.83,68.44c-.37.31-.74.64-1.1,1,.22-.41.42-.81.61-1.24A4.59,4.59,0,0,1,166.83,68.44Z"/><path class="cls-3" d="M166.83,68.44c-.37.31-.74.64-1.1,1,.22-.41.42-.81.61-1.24A4.59,4.59,0,0,1,166.83,68.44Z"/><path class="cls-4" d="M197,59.35c-3.06-9-10.5-15.27-19.18-15.27a18.6,18.6,0,0,0-12.27,4.76A18.29,18.29,0,0,0,149.61,39C139.35,39,131,48.1,131,59.33v.12c-9.24,1.13-16.45,10.21-16.45,21.22,0,11.79,8.24,21.35,18.41,21.35a16,16,0,0,0,5.28-.9,25,25,0,0,0,16.43,6,25.43,25.43,0,0,0,12.89-3.44,16.91,16.91,0,0,0,10.16,3.44c7.47,0,13.91-5,16.89-12.26q.69.06,1.38.06A17.79,17.79,0,0,0,197,59.35Zm-30.14,9.09c-.37.31-.74.64-1.1,1,.22-.41.42-.81.61-1.24A4.59,4.59,0,0,1,166.83,68.44Z"/><path class="cls-5" d="M64.8,61.69,54.45,49.9l.77-.67L65.57,61ZM92.89,29.52,86,23.45l-8.11,7.39,8.69,7.66ZM74.49,50.63A17.78,17.78,0,1,0,92.27,68.41,17.78,17.78,0,0,0,74.49,50.63Zm.25-22.86A14.48,14.48,0,1,0,89.22,42.25,14.49,14.49,0,0,0,74.74,27.77ZM66.11,37.93a1.78,1.78,0,1,0,1.77,1.78A1.78,1.78,0,0,0,66.11,37.93Zm9.65,2a1.78,1.78,0,1,0,1.78,1.77A1.78,1.78,0,0,0,75.76,40Zm-16.34,4.5,7.32,2.17a2.24,2.24,0,0,0,2.87-2h0a2.24,2.24,0,0,0-2.49-2.42l-7.58.87A.68.68,0,0,0,59.42,44.47Zm11.43,5.47a2,2,0,0,0,1.74-2.31l-.5.07a1.51,1.51,0,1,1-3,.37l-.5.07a2,2,0,0,0,2,1.82Zm24.83,1.55-.73-.7L83.77,62.47l.74.71Z"/><line class="cls-6" x1="54.32" y1="48.68" x2="64.67" y2="60.47"/><polygon class="cls-7" points="86.06 37.61 77.37 29.96 85.48 22.56 92.38 28.64 86.06 37.61"/><circle class="cls-8" cx="73.97" cy="67.53" r="17.78"/><circle class="cls-9" cx="74.22" cy="41.37" r="14.48"/><circle class="cls-10" cx="65.59" cy="38.83" r="1.78"/><circle class="cls-10" cx="75.24" cy="40.86" r="1.78"/><path class="cls-11" d="M58.9,43.59l7.32,2.17a2.25,2.25,0,0,0,2.87-2h0a2.24,2.24,0,0,0-2.48-2.42L59,42.25A.69.69,0,0,0,58.9,43.59Z"/><path class="cls-12" d="M71.82,46.78a1.76,1.76,0,1,1-3.5.44"/><line class="cls-6" x1="94.8" y1="50.26" x2="83.62" y2="61.94"/><path class="cls-13" d="M122.12,110.7,109.12,99v8.5H88.32a2.68,2.68,0,0,1-2.69-2.69V94h-7v10.81a9.69,9.69,0,0,0,9.69,9.69h20.8v7.82Z"/><path class="cls-14" d="M121.37,110.3l-13-11.66v8.5H87.57a2.69,2.69,0,0,1-2.69-2.7V93.64h-7v10.8a9.7,9.7,0,0,0,9.69,9.7h20.8V122Z"/></g></g></svg>