<svg xmlns="http://www.w3.org/2000/svg" xmlns:xlink="http://www.w3.org/1999/xlink" viewBox="0 0 250 150"><defs><style>.cls-1{fill:#eee;}.cls-2{fill:url(#名称未設定グラデーション_1193);}.cls-3{fill:url(#名称未設定グラデーション_60);}.cls-4{fill:url(#名称未設定グラデーション_10);}.cls-5{fill:url(#名称未設定グラデーション_3702);}.cls-6{fill:url(#名称未設定グラデーション_3649);}.cls-7{fill:url(#名称未設定グラデーション_3724);}.cls-8{fill:url(#名称未設定グラデーション_3599);}.cls-9{fill:url(#名称未設定グラデーション_3636);}</style><linearGradient id="名称未設定グラデーション_1193" x1="47.33" y1="50.28" x2="113" y2="50.28" gradientUnits="userSpaceOnUse"><stop offset="0" stop-color="#998675" stop-opacity="0.4"/><stop offset="1" stop-color="#736357"/></linearGradient><linearGradient id="名称未設定グラデーション_60" x1="58.75" y1="29.4" x2="105.96" y2="74.89" gradientUnits="userSpaceOnUse"><stop offset="0" stop-color="#ffb379"/><stop offset="1" stop-color="#f22506"/></linearGradient><linearGradient id="名称未設定グラデーション_10" x1="68.01" y1="37.89" x2="91.67" y2="61.55" gradientUnits="userSpaceOnUse"><stop offset="0" stop-color="#ff9c68"/><stop offset="1" stop-color="#f13700"/></linearGradient><linearGradient id="名称未設定グラデーション_3702" x1="127.8" y1="47.9" x2="205.05" y2="117.43" gradientUnits="userSpaceOnUse"><stop offset="0" stop-color="#b3b3b3" stop-opacity="0.5"/><stop offset="1" stop-color="#333" stop-opacity="0.8"/></linearGradient><linearGradient id="名称未設定グラデーション_3649" x1="165.73" y1="68.8" x2="166.83" y2="68.8" gradientUnits="userSpaceOnUse"><stop offset="0" stop-color="#e6e6e6"/><stop offset="1" stop-color="#666"/></linearGradient><linearGradient id="名称未設定グラデーション_3724" x1="126.27" y1="46" x2="203.53" y2="115.53" gradientUnits="userSpaceOnUse"><stop offset="0" stop-color="#e6e6e6"/><stop offset="0.12" stop-color="#d7d7d7"/><stop offset="0.51" stop-color="#aeaeae"/><stop offset="0.82" stop-color="#959595"/><stop offset="1" stop-color="#8c8c8c"/></linearGradient><linearGradient id="名称未設定グラデーション_3599" x1="80.25" y1="108.57" x2="123.75" y2="108.57" gradientUnits="userSpaceOnUse"><stop offset="0" stop-color="#b3b3b3" stop-opacity="0.4"/><stop offset="1" stop-color="#4d4d4d"/></linearGradient><linearGradient id="名称未設定グラデーション_3636" x1="79.5" y1="108.16" x2="123" y2="108.16" gradientUnits="userSpaceOnUse"><stop offset="0" stop-color="#ccc"/><stop offset="1" stop-color="#666"/></linearGradient></defs><g id="レイヤー_15" data-name="レイヤー 15"><rect class="cls-1" width="250" height="150"/></g><g id="太陽_小_" data-name="太陽（小）"><path class="cls-2" d="M96.92,50.28a16.76,16.76,0,1,1-16.76-16.7A16.73,16.73,0,0,1,96.92,50.28ZM79.72,17.56,73.8,31.2H85.64ZM70.49,32.93l-8.37,8.34L56.63,27.46ZM61,44.83V56.62L47.33,50.73Zm1.74,15.09,8.37,8.34L57.26,73.73Zm11.94,9.45H86.53L80.61,83Zm15.15-1.74,8.37-8.34L103.7,73.1Zm9.48-11.9V43.94L113,49.84ZM97.58,40.64,89.21,32.3l13.86-5.47Z"/><path class="cls-3" d="M85.31,30.63H73.47L79.39,17Zm-29-3.73,5.49,13.81,8.37-8.34ZM47,50.16l13.68,5.9V44.27Zm9.93,23L70.79,67.7l-8.37-8.34Zm23.35,9.27L86.2,68.8H74.36Zm23.09-9.9L97.88,58.73l-8.37,8.34Zm9.3-23.27L99,43.38V55.17Zm-9.93-23L88.88,31.74l8.37,8.34Z"/><ellipse class="cls-4" cx="79.84" cy="49.72" rx="16.76" ry="16.7"/></g><g id="曇り_中_" data-name="曇り（中）"><path class="cls-5" d="M198.5,61.25C195.44,52.29,188,46,179.32,46a18.58,18.58,0,0,0-12.27,4.76,18.32,18.32,0,0,0-15.92-9.84c-10.26,0-18.57,9.1-18.57,20.33v.12c-9.25,1.13-16.46,10.21-16.46,21.22,0,11.79,8.25,21.35,18.42,21.35a16,16,0,0,0,5.27-.9,25,25,0,0,0,16.43,6,25.5,25.5,0,0,0,12.9-3.44A16.88,16.88,0,0,0,179.27,109c7.47,0,13.92-5,16.9-12.26.45,0,.91.06,1.37.06a17.79,17.79,0,0,0,1-35.55Zm-30.14,9.09c-.38.31-.75.64-1.11,1,.22-.41.42-.81.61-1.24C168,70.16,168.19,70.24,168.36,70.34Z"/><path class="cls-6" d="M166.83,68.44c-.37.31-.74.64-1.1,1,.22-.41.42-.81.61-1.24A4.59,4.59,0,0,1,166.83,68.44Z"/><path class="cls-6" d="M166.83,68.44c-.37.31-.74.64-1.1,1,.22-.41.42-.81.61-1.24A4.59,4.59,0,0,1,166.83,68.44Z"/><path class="cls-7" d="M197,59.35c-3.06-9-10.5-15.27-19.18-15.27a18.6,18.6,0,0,0-12.27,4.76A18.29,18.29,0,0,0,149.61,39C139.35,39,131,48.1,131,59.33v.12c-9.24,1.13-16.45,10.21-16.45,21.22,0,11.79,8.24,21.35,18.41,21.35a16,16,0,0,0,5.28-.9,25,25,0,0,0,16.43,6,25.43,25.43,0,0,0,12.89-3.44,16.91,16.91,0,0,0,10.16,3.44c7.47,0,13.91-5,16.89-12.26q.69.06,1.38.06A17.79,17.79,0,0,0,197,59.35Zm-30.14,9.09c-.37.31-.74.64-1.1,1,.22-.41.42-.81.61-1.24A4.59,4.59,0,0,1,166.83,68.44Z"/></g><g id="矢印"><path class="cls-8" d="M123.75,111.07l-13-11.66v8.5H90a2.7,2.7,0,0,1-2.7-2.7V94.41h-7v10.8a9.71,9.71,0,0,0,9.7,9.7h20.8v7.81Z"/><path class="cls-9" d="M123,110.66,110,99v8.5H89.2a2.7,2.7,0,0,1-2.7-2.7V94h-7v10.8a9.71,9.71,0,0,0,9.7,9.7H110v7.82Z"/></g></svg>