<svg xmlns="http://www.w3.org/2000/svg" viewBox="0 0 250 150"><defs><style>.cls-1{fill:#ff874a;}.cls-2,.cls-4{fill:none;stroke-width:5px;}.cls-2,.cls-5{stroke:#fff;}.cls-2,.cls-4,.cls-5{stroke-miterlimit:10;}.cls-3{fill:#689fea;}.cls-4{stroke:#fefefe;}.cls-5{fill:#fefefe;stroke-width:2px;}</style></defs><g id="レイヤー_1" data-name="レイヤー 1"><path class="cls-1" d="M221,150H20A20,20,0,0,1,0,130V20A20,20,0,0,1,20,0H219Z"/><circle class="cls-2" cx="59.29" cy="75.2" r="20.41"/><path class="cls-2" d="M87.9,75.24a.15.15,0,0,1,.15-.15H99.34a.15.15,0,0,1,.14.15.15.15,0,0,1-.14.16H88.05A.16.16,0,0,1,87.9,75.24Z"/><path class="cls-2" d="M19,75.24a.18.18,0,0,1,.15-.19H30.43a.18.18,0,0,1,.15.19c0,.11-.07.2-.15.2H19.15C19.07,75.44,19,75.35,19,75.24Z"/><path class="cls-2" d="M39,55.08a.2.2,0,0,1-.27,0L28.35,44.71a.19.19,0,0,1,0-.28.2.2,0,0,1,.27,0L39,54.8A.19.19,0,0,1,39,55.08Z"/><path class="cls-2" d="M90.14,106.23a.2.2,0,0,1-.27,0L79.5,95.86a.19.19,0,0,1,0-.28.2.2,0,0,1,.27,0L90.14,106A.19.19,0,0,1,90.14,106.23Z"/><path class="cls-2" d="M39,95.39a.18.18,0,0,1,0,.27L28.62,106a.19.19,0,1,1-.27-.27L38.72,95.39A.2.2,0,0,1,39,95.39Z"/><path class="cls-2" d="M90.14,44.43a.19.19,0,0,1,0,.28L79.77,55.08a.2.2,0,0,1-.27,0,.19.19,0,0,1,0-.28L89.87,44.43A.2.2,0,0,1,90.14,44.43Z"/><path class="cls-2" d="M59.17,103.94a.14.14,0,0,1,.15.15v11.28a.15.15,0,0,1-.15.15.15.15,0,0,1-.15-.15V104.09A.15.15,0,0,1,59.17,103.94Z"/><path class="cls-2" d="M59.17,35a.15.15,0,0,1,.15.15V46.43a.15.15,0,0,1-.15.15.15.15,0,0,1-.15-.15V35.15A.15.15,0,0,1,59.17,35Z"/></g><g id="レイヤー_2" data-name="レイヤー 2"><path class="cls-3" d="M230,150H95L155,0h75a20,20,0,0,1,20,20V130A20,20,0,0,1,230,150Z"/><path class="cls-4" d="M217.5,86.5c3.78,0,6.56-.58,7.84-7a10.57,10.57,0,0,0,.29-3.45c0-9.38-6.2-17.11-14.26-18.45a21,21,0,0,0-41,2.28,18.16,18.16,0,0,0-15.9,17.92v.09c0,8.66,3.69,8.66,8,8.66Z"/><path class="cls-5" d="M163.55,113.14a1.49,1.49,0,0,1-.61-1.7l4.82-14.77a.92.92,0,0,1,1.36-.58,1.5,1.5,0,0,1,.61,1.7l-4.83,14.77A.91.91,0,0,1,163.55,113.14Z"/><path class="cls-5" d="M186.2,113.14a1.5,1.5,0,0,1-.61-1.7l4.83-14.77a.91.91,0,0,1,1.35-.58,1.47,1.47,0,0,1,.61,1.7l-4.82,14.77A.92.92,0,0,1,186.2,113.14Z"/><path class="cls-5" d="M208.88,113.23a1.48,1.48,0,0,1-.64-1.68l4.55-14.93a.92.92,0,0,1,1.35-.61,1.46,1.46,0,0,1,.64,1.67l-4.55,14.93A.93.93,0,0,1,208.88,113.23Z"/></g></svg>