<svg xmlns="http://www.w3.org/2000/svg" xmlns:xlink="http://www.w3.org/1999/xlink" viewBox="0 0 250 150"><defs><style>.cls-1{fill:#eee;}.cls-2{fill:url(#名称未設定グラデーション_1193);}.cls-3{fill:url(#名称未設定グラデーション_60);}.cls-4{fill:url(#名称未設定グラデーション_10);}.cls-5{fill:url(#名称未設定グラデーション_4383);}.cls-12,.cls-6{fill:none;stroke:#5e4640;stroke-miterlimit:10;}.cls-6{stroke-width:2px;}.cls-7{fill:url(#名称未設定グラデーション_4147);}.cls-8{fill:url(#名称未設定グラデーション_4246);}.cls-9{fill:url(#名称未設定グラデーション_4235);}.cls-10{fill:#383838;}.cls-11{fill:url(#名称未設定グラデーション_3869);}.cls-13{fill:url(#名称未設定グラデーション_3599);}.cls-14{fill:url(#名称未設定グラデーション_3636);}</style><linearGradient id="名称未設定グラデーション_1193" x1="47.33" y1="50.28" x2="113" y2="50.28" gradientUnits="userSpaceOnUse"><stop offset="0" stop-color="#998675" stop-opacity="0.4"/><stop offset="1" stop-color="#736357"/></linearGradient><linearGradient id="名称未設定グラデーション_60" x1="58.75" y1="29.4" x2="105.96" y2="74.89" gradientUnits="userSpaceOnUse"><stop offset="0" stop-color="#ffb379"/><stop offset="1" stop-color="#f22506"/></linearGradient><linearGradient id="名称未設定グラデーション_10" x1="68.01" y1="37.89" x2="91.67" y2="61.55" gradientUnits="userSpaceOnUse"><stop offset="0" stop-color="#ff9c68"/><stop offset="1" stop-color="#f13700"/></linearGradient><linearGradient id="名称未設定グラデーション_4383" x1="130.73" y1="85.35" x2="194.1" y2="85.35" gradientUnits="userSpaceOnUse"><stop offset="0" stop-color="#b2bfcb"/><stop offset="0.76" stop-color="#7d8b93"/><stop offset="1" stop-color="#6b7a80"/></linearGradient><linearGradient id="名称未設定グラデーション_4147" x1="172.1" y1="39.61" x2="186.79" y2="57.39" gradientUnits="userSpaceOnUse"><stop offset="0" stop-color="#ff817a"/><stop offset="0.53" stop-color="#c7524c"/><stop offset="1" stop-color="#922722"/></linearGradient><linearGradient id="名称未設定グラデーション_4246" x1="144.4" y1="88.32" x2="182.77" y2="127.25" gradientUnits="userSpaceOnUse"><stop offset="0" stop-color="#dae6e6"/><stop offset="1" stop-color="#a9b3c0"/></linearGradient><linearGradient id="名称未設定グラデーション_4235" x1="147.82" y1="51.19" x2="179.07" y2="82.88" gradientUnits="userSpaceOnUse"><stop offset="0" stop-color="#e2eeee"/><stop offset="0.98" stop-color="#b2b5b9"/><stop offset="1" stop-color="#b1b4b8"/></linearGradient><linearGradient id="名称未設定グラデーション_3869" x1="134.89" y1="73.67" x2="151.43" y2="73.67" gradientTransform="translate(-5.55 11.79) rotate(-6.53)" gradientUnits="userSpaceOnUse"><stop offset="0" stop-color="#ffa67c"/><stop offset="0.65" stop-color="#f67544"/><stop offset="1" stop-color="#f15a24"/></linearGradient><linearGradient id="名称未設定グラデーション_3599" x1="78.63" y1="108.2" x2="122.12" y2="108.2" gradientUnits="userSpaceOnUse"><stop offset="0" stop-color="#b3b3b3" stop-opacity="0.4"/><stop offset="1" stop-color="#4d4d4d"/></linearGradient><linearGradient id="名称未設定グラデーション_3636" x1="77.88" y1="107.8" x2="121.37" y2="107.8" gradientUnits="userSpaceOnUse"><stop offset="0" stop-color="#ccc"/><stop offset="1" stop-color="#666"/></linearGradient></defs><g id="レイヤー_15" data-name="レイヤー 15"><rect class="cls-1" width="250" height="150"/></g><g id="レイヤー_20" data-name="レイヤー 20"><g id="レイヤー_21" data-name="レイヤー 21"><path class="cls-2" d="M96.92,50.28a16.76,16.76,0,1,1-16.76-16.7A16.73,16.73,0,0,1,96.92,50.28ZM79.72,17.56,73.8,31.2H85.64ZM70.49,32.93l-8.37,8.34L56.63,27.46ZM61,44.83V56.62L47.33,50.73Zm1.74,15.09,8.37,8.34L57.26,73.73Zm11.94,9.45H86.53L80.61,83Zm15.15-1.74,8.37-8.34L103.7,73.1Zm9.48-11.9V43.94L113,49.84ZM97.58,40.64,89.21,32.3l13.86-5.47Z"/><path class="cls-3" d="M85.31,30.63H73.47L79.39,17Zm-29-3.73,5.49,13.81,8.37-8.34ZM47,50.16l13.68,5.9V44.27Zm9.93,23L70.79,67.7l-8.37-8.34Zm23.35,9.27L86.2,68.8H74.36Zm23.09-9.9L97.88,58.73l-8.37,8.34Zm9.3-23.27L99,43.38V55.17Zm-9.93-23L88.88,31.74l8.37,8.34Z"/><ellipse class="cls-4" cx="79.84" cy="49.72" rx="16.76" ry="16.7"/><path class="cls-5" d="M146.64,95.91,130.73,77.79l1.17-1,15.91,18.12Zm43.17-49.44-10.59-9.34L166.75,48.5,180.1,60.27ZM161.52,78.92a27.33,27.33,0,1,0,27.33,27.33A27.33,27.33,0,0,0,161.52,78.92Zm.39-35.14A22.26,22.26,0,1,0,184.17,66,22.25,22.25,0,0,0,161.91,43.78ZM148.64,59.4a2.73,2.73,0,1,0,2.73,2.73A2.73,2.73,0,0,0,148.64,59.4Zm14.83,3.12a2.74,2.74,0,1,0,2.74,2.73A2.73,2.73,0,0,0,163.47,62.52Zm-25.41,6.84,11.8,3.5A3.24,3.24,0,0,0,154,70l.05-.52A3.23,3.23,0,0,0,150.46,66l-12.23,1.4A1,1,0,0,0,138.06,69.36Zm17.86,8.49a3.14,3.14,0,0,0,2.68-3.54l-.77.09a2.32,2.32,0,1,1-4.61.58l-.77.1a3.16,3.16,0,0,0,3.1,2.8A2.31,2.31,0,0,0,155.92,77.85Zm38.18,2.39L193,79.16l-17.18,18,1.13,1.08Z"/><line class="cls-6" x1="130.52" y1="75.91" x2="146.43" y2="94.04"/><polygon class="cls-7" points="179.31 58.91 165.96 47.14 178.42 35.77 189.02 45.11 179.31 58.91"/><circle class="cls-8" cx="160.73" cy="104.89" r="27.33"/><circle class="cls-9" cx="161.12" cy="64.67" r="22.25"/><circle class="cls-10" cx="147.84" cy="60.77" r="2.73"/><circle class="cls-10" cx="162.68" cy="63.89" r="2.73"/><path class="cls-11" d="M137.27,68l11.8,3.49a3.23,3.23,0,0,0,4.14-2.81l0-.52a3.22,3.22,0,0,0-3.59-3.49l-12.23,1.4A1,1,0,0,0,137.27,68Z"/><path class="cls-12" d="M157.42,73a2.71,2.71,0,1,1-5.38.68"/><line class="cls-6" x1="192.74" y1="78.34" x2="175.56" y2="96.3"/><path class="cls-13" d="M122.12,110.7,109.12,99v8.5H88.32a2.68,2.68,0,0,1-2.69-2.69V94h-7v10.81a9.69,9.69,0,0,0,9.69,9.69h20.8v7.82Z"/><path class="cls-14" d="M121.37,110.3l-13-11.66v8.5H87.57a2.69,2.69,0,0,1-2.69-2.7V93.64h-7v10.8a9.7,9.7,0,0,0,9.69,9.7h20.8V122Z"/></g></g></svg>