<svg xmlns="http://www.w3.org/2000/svg" xmlns:xlink="http://www.w3.org/1999/xlink" viewBox="0 0 250 150"><defs><style>.cls-1{fill:#eee;}.cls-2{fill:url(#名称未設定グラデーション_1193);}.cls-3{fill:url(#名称未設定グラデーション_60);}.cls-4{fill:url(#名称未設定グラデーション_10);}.cls-5{fill:url(#名称未設定グラデーション_10-2);}.cls-6{fill:url(#名称未設定グラデーション_2455);}.cls-10,.cls-7{fill:none;stroke-miterlimit:10;}.cls-7{stroke-width:5px;stroke:url(#名称未設定グラデーション_1525);}.cls-8{fill:url(#名称未設定グラデーション_2467);}.cls-9{fill:url(#名称未設定グラデーション_1525-2);}.cls-10{stroke-width:9px;stroke:url(#名称未設定グラデーション_1525-3);}.cls-11{fill:url(#名称未設定グラデーション_3599);}.cls-12{fill:url(#名称未設定グラデーション_3636);}</style><linearGradient id="名称未設定グラデーション_1193" x1="46.94" y1="50.15" x2="112.61" y2="50.15" gradientUnits="userSpaceOnUse"><stop offset="0" stop-color="#998675" stop-opacity="0.4"/><stop offset="1" stop-color="#736357"/></linearGradient><linearGradient id="名称未設定グラデーション_60" x1="58.35" y1="29.27" x2="105.57" y2="74.76" gradientUnits="userSpaceOnUse"><stop offset="0" stop-color="#ffb379"/><stop offset="1" stop-color="#f22506"/></linearGradient><linearGradient id="名称未設定グラデーション_10" x1="67.62" y1="37.76" x2="91.28" y2="61.42" gradientUnits="userSpaceOnUse"><stop offset="0" stop-color="#ff9c68"/><stop offset="1" stop-color="#f13700"/></linearGradient><linearGradient id="名称未設定グラデーション_10-2" x1="169.39" y1="71.87" x2="169.39" y2="71.87" gradientTransform="translate(0 0)" xlink:href="#名称未設定グラデーション_10"/><linearGradient id="名称未設定グラデーション_2455" x1="113.1" y1="84.37" x2="202.61" y2="84.37" gradientTransform="translate(0 0)" gradientUnits="userSpaceOnUse"><stop offset="0.01" stop-color="#688da6" stop-opacity="0.7"/><stop offset="1" stop-color="#56729f"/></linearGradient><linearGradient id="名称未設定グラデーション_1525" x1="131.62" y1="64.13" x2="176.14" y2="108.65" gradientTransform="translate(0 0)" gradientUnits="userSpaceOnUse"><stop offset="0" stop-color="#7fd1fb"/><stop offset="1" stop-color="#1e74ff"/></linearGradient><linearGradient id="名称未設定グラデーション_2467" x1="130.46" y1="54.19" x2="184.49" y2="108.22" gradientTransform="translate(0 0)" gradientUnits="userSpaceOnUse"><stop offset="0" stop-color="#8dd8fb"/><stop offset="1" stop-color="#1e74ff"/></linearGradient><linearGradient id="名称未設定グラデーション_1525-2" x1="157.36" y1="35.87" x2="157.36" y2="35.87" xlink:href="#名称未設定グラデーション_1525"/><linearGradient id="名称未設定グラデーション_1525-3" x1="169.61" y1="31.87" x2="169.61" y2="31.87" xlink:href="#名称未設定グラデーション_1525"/><linearGradient id="名称未設定グラデーション_3599" x1="79.86" y1="108.43" x2="123.36" y2="108.43" gradientUnits="userSpaceOnUse"><stop offset="0" stop-color="#b3b3b3" stop-opacity="0.4"/><stop offset="1" stop-color="#4d4d4d"/></linearGradient><linearGradient id="名称未設定グラデーション_3636" x1="79.11" y1="108.03" x2="122.61" y2="108.03" gradientUnits="userSpaceOnUse"><stop offset="0" stop-color="#ccc"/><stop offset="1" stop-color="#666"/></linearGradient></defs><g id="レイヤー_15" data-name="レイヤー 15"><rect class="cls-1" width="250" height="150"/></g><g id="晴_雨" data-name="晴→雨"><path class="cls-2" d="M96.53,50.15a16.76,16.76,0,1,1-16.76-16.7A16.73,16.73,0,0,1,96.53,50.15ZM79.33,17.43,73.41,31.07H85.25ZM70.1,32.8l-8.37,8.34L56.24,27.33ZM60.62,44.7V56.49l-13.68-5.9Zm1.74,15.09,8.37,8.34L56.87,73.6ZM74.3,69.24H86.14L80.22,82.87ZM89.45,67.5l8.37-8.34L103.31,73Zm9.48-11.9V43.81l13.68,5.9ZM97.19,40.51l-8.37-8.34,13.86-5.47Z"/><path class="cls-3" d="M84.92,30.5H73.08L79,16.87Zm-29-3.73L61.4,40.58l8.37-8.34ZM46.61,50l13.68,5.9V44.13Zm9.93,23L70.4,67.57,62,59.23Zm23.35,9.27,5.92-13.64H74ZM103,72.41,97.49,58.6l-8.37,8.34Zm9.3-23.27L98.6,43.25V55Zm-9.93-23L88.49,31.61,96.86,40Z"/><ellipse class="cls-4" cx="79.45" cy="49.59" rx="16.76" ry="16.7"/><path class="cls-5" d="M169.39,71.87"/><path class="cls-6" d="M135.76,76.68Zm24.58,44.11V41.88h-5v78.91c0,3.31-2.05,6.11-4.47,6.11s-4.48-2.8-4.48-6.11h-5c0,6.11,4.24,11.08,9.45,11.08S160.34,126.9,160.34,120.79ZM128,80.66c7.29,0,13.36,2.9,14.66,9.27a.27.27,0,0,0,.52,0c1.32-6.17,7.38-8.28,14.66-8.28s13.35,2.12,14.65,8.3a.27.27,0,0,0,.53,0c1.3-6.18,7.37-8.3,14.65-8.3,5,0,14.92,1.71,14.92,9.95,0-24.71-20-43.75-44.75-43.75s-44.75,18-44.75,42.75C113.11,82.37,123.05,80.66,128,80.66Zm29.84-43.8Zm-21.88,0"/><path class="cls-7" d="M157.36,40.88V119.8c0,4.74-3.12,8.59-7,8.59h0c-3.85,0-7-3.85-7-8.59"/><path class="cls-8" d="M112.61,89.61c0-24.71,20-42.76,44.75-42.76s44.75,19,44.75,43.75c0-8.23-9.94-9.94-14.92-9.94-7.28,0-13.35,2.11-14.65,8.3a.27.27,0,0,1-.52,0c-1.31-6.19-7.38-8.3-14.66-8.3S144,82.77,142.71,88.94a.27.27,0,0,1-.52,0c-1.3-6.38-7.38-9.27-14.66-9.27C122.55,79.67,112.61,81.38,112.61,89.61Z"/><path class="cls-9" d="M157.36,35.87"/><path class="cls-10" d="M169.61,31.87"/><path class="cls-11" d="M123.36,110.93l-13-11.65v8.5H89.55a2.7,2.7,0,0,1-2.69-2.7V94.28h-7v10.8a9.71,9.71,0,0,0,9.69,9.7h20.81v7.81Z"/><path class="cls-12" d="M122.61,110.53l-13-11.66v8.5H88.8a2.7,2.7,0,0,1-2.69-2.7V93.87h-7v10.8a9.71,9.71,0,0,0,9.69,9.7h20.81v7.82Z"/></g></svg>